# Blender 5.1.0
# www.blender.org
mtllib boneco_de_neve.mtl
o boneco_de_neve
g cabeca
v 0.000000 0.885615 0.000000
v 0.000000 0.992676 0.382743
v 0.000000 1.167945 0.572816
v 0.000000 1.396944 0.675683
v 0.000000 1.520878 0.688920
v 0.000000 1.644811 0.675683
v 0.000000 1.873811 0.572816
v 0.000000 2.156140 0.000000
v -0.026220 0.897821 0.131819
v -0.051433 0.933972 0.258573
v -0.074670 0.992676 0.375389
v -0.095036 1.071679 0.477780
v -0.111751 1.167945 0.561810
v -0.124171 1.277773 0.624249
v -0.131819 1.396944 0.662700
v -0.134402 1.520878 0.675683
v -0.131819 1.644811 0.662700
v -0.124171 1.763982 0.624249
v -0.111751 1.873811 0.561810
v -0.095036 1.970076 0.477780
v -0.074670 2.049079 0.375389
v -0.051433 2.107784 0.258573
v -0.026220 2.143934 0.131819
v -0.051433 0.897821 0.124171
v -0.100890 0.933972 0.243570
v -0.146470 0.992676 0.353609
v -0.186420 1.071679 0.450059
v -0.219207 1.167945 0.529213
v -0.243570 1.277773 0.588030
v -0.258573 1.396944 0.624249
v -0.263638 1.520878 0.636479
v -0.258573 1.644811 0.624249
v -0.243570 1.763982 0.588030
v -0.219207 1.873811 0.529213
v -0.186420 1.970076 0.450059
v -0.146470 2.049079 0.353609
v -0.100890 2.107784 0.243570
v -0.051433 2.143934 0.124171
v -0.074670 0.897821 0.111751
v -0.146470 0.933972 0.219207
v -0.212641 0.992676 0.318240
v -0.270640 1.071679 0.405042
v -0.318240 1.167945 0.476279
v -0.353609 1.277773 0.529213
v -0.375389 1.396944 0.561810
v -0.382743 1.520878 0.572816
v -0.375389 1.644811 0.561810
v -0.353609 1.763982 0.529213
v -0.318240 1.873811 0.476279
v -0.270640 1.970076 0.405042
v -0.212641 2.049079 0.318240
v -0.146470 2.107784 0.219207
v -0.074670 2.143934 0.111751
v -0.095036 0.897821 0.095036
v -0.186420 0.933972 0.186420
v -0.270640 0.992676 0.270640
v -0.344460 1.071679 0.344460
v -0.405042 1.167945 0.405042
v -0.450059 1.277773 0.450059
v -0.477780 1.396944 0.477780
v -0.487140 1.520878 0.487140
v -0.477780 1.644811 0.477780
v -0.450059 1.763982 0.450059
v -0.405042 1.873811 0.405042
v -0.344460 1.970076 0.344460
v -0.270640 2.049079 0.270640
v -0.186420 2.107784 0.186420
v -0.095036 2.143934 0.095036
v -0.111751 0.897821 0.074670
v -0.219207 0.933972 0.146470
v -0.318240 0.992676 0.212641
v -0.405042 1.071679 0.270640
v -0.476279 1.167945 0.318239
v -0.529213 1.277773 0.353609
v -0.561810 1.396944 0.375389
v -0.572816 1.520878 0.382743
v -0.561810 1.644811 0.375389
v -0.529213 1.763982 0.353609
v -0.476279 1.873811 0.318239
v -0.405042 1.970076 0.270640
v -0.318240 2.049079 0.212641
v -0.219207 2.107784 0.146470
v -0.111751 2.143934 0.074670
v -0.124171 0.897821 0.051433
v -0.243570 0.933972 0.100890
v -0.353609 0.992676 0.146470
v -0.450059 1.071679 0.186420
v -0.529213 1.167945 0.219207
v -0.588030 1.277773 0.243570
v -0.624249 1.396944 0.258572
v -0.636479 1.520878 0.263638
v -0.624249 1.644811 0.258572
v -0.588030 1.763982 0.243570
v -0.529213 1.873811 0.219207
v -0.450059 1.970076 0.186420
v -0.353609 2.049079 0.146470
v -0.243570 2.107784 0.100890
v -0.124171 2.143934 0.051433
v -0.131819 0.897821 0.026220
v -0.258573 0.933972 0.051433
v -0.375389 0.992676 0.074670
v -0.477780 1.071679 0.095036
v -0.561809 1.167945 0.111751
v -0.624249 1.277773 0.124171
v -0.662699 1.396944 0.131819
v -0.675682 1.520878 0.134402
v -0.662699 1.644811 0.131819
v -0.624249 1.763982 0.124171
v -0.561809 1.873811 0.111751
v -0.477780 1.970076 0.095036
v -0.375389 2.049079 0.074670
v -0.258573 2.107784 0.051433
v -0.131819 2.143934 0.026220
v -0.134402 0.897821 -0.000000
v -0.263638 0.933972 -0.000000
v -0.382743 0.992676 -0.000000
v -0.487140 1.071679 0.000000
v -0.572816 1.167945 -0.000000
v -0.636479 1.277773 0.000000
v -0.675682 1.396944 -0.000000
v -0.688920 1.520878 -0.000000
v -0.675682 1.644811 -0.000000
v -0.636479 1.763982 0.000000
v -0.572816 1.873811 -0.000000
v -0.487140 1.970076 0.000000
v -0.382743 2.049079 -0.000000
v -0.263638 2.107784 -0.000000
v -0.134402 2.143934 -0.000000
v -0.131819 0.897821 -0.026220
v -0.258573 0.933972 -0.051433
v -0.375389 0.992676 -0.074670
v -0.477780 1.071679 -0.095036
v -0.561809 1.167945 -0.111751
v -0.624249 1.277773 -0.124171
v -0.662699 1.396944 -0.131819
v -0.675682 1.520878 -0.134402
v -0.662699 1.644811 -0.131819
v -0.624249 1.763982 -0.124171
v -0.561809 1.873811 -0.111751
v -0.477780 1.970076 -0.095036
v -0.375389 2.049079 -0.074670
v -0.258573 2.107784 -0.051433
v -0.131819 2.143934 -0.026220
v -0.124171 0.897821 -0.051433
v -0.243570 0.933972 -0.100890
v -0.353609 0.992676 -0.146470
v -0.450059 1.071679 -0.186420
v -0.529213 1.167945 -0.219207
v -0.588030 1.277773 -0.243570
v -0.624249 1.396944 -0.258573
v -0.636479 1.520878 -0.263638
v -0.624249 1.644811 -0.258573
v -0.588030 1.763982 -0.243570
v -0.529213 1.873811 -0.219207
v -0.450059 1.970076 -0.186420
v -0.353609 2.049079 -0.146470
v -0.243570 2.107784 -0.100890
v -0.124171 2.143934 -0.051433
v -0.111751 0.897821 -0.074670
v -0.219207 0.933972 -0.146470
v -0.318239 0.992676 -0.212641
v -0.405042 1.071679 -0.270640
v -0.476279 1.167945 -0.318240
v -0.529213 1.277773 -0.353609
v -0.561809 1.396944 -0.375389
v -0.572816 1.520878 -0.382743
v -0.561809 1.644811 -0.375389
v -0.529213 1.763982 -0.353609
v -0.476279 1.873811 -0.318240
v -0.405042 1.970076 -0.270640
v -0.318239 2.049079 -0.212641
v -0.219207 2.107784 -0.146470
v -0.111751 2.143934 -0.074670
v -0.095036 0.897821 -0.095036
v -0.186420 0.933972 -0.186420
v -0.270640 0.992676 -0.270640
v -0.344460 1.071679 -0.344460
v -0.405042 1.167945 -0.405042
v -0.450059 1.277773 -0.450059
v -0.477780 1.396944 -0.477780
v -0.487140 1.520878 -0.487140
v -0.477780 1.644811 -0.477780
v -0.450059 1.763982 -0.450059
v -0.405042 1.873811 -0.405042
v -0.344460 1.970076 -0.344460
v -0.270640 2.049079 -0.270640
v -0.186420 2.107784 -0.186420
v -0.095036 2.143934 -0.095036
v -0.074670 0.897821 -0.111751
v -0.146470 0.933972 -0.219207
v -0.212641 0.992676 -0.318239
v -0.270640 1.071679 -0.405042
v -0.318239 1.167945 -0.476279
v -0.353609 1.277773 -0.529213
v -0.375389 1.396944 -0.561809
v -0.382743 1.520878 -0.572816
v -0.375389 1.644811 -0.561809
v -0.353609 1.763982 -0.529213
v -0.318239 1.873811 -0.476279
v -0.270640 1.970076 -0.405042
v -0.212641 2.049079 -0.318239
v -0.146470 2.107784 -0.219207
v -0.074670 2.143934 -0.111751
v -0.051433 0.897821 -0.124171
v -0.100890 0.933972 -0.243570
v -0.146469 0.992676 -0.353609
v -0.186420 1.071679 -0.450059
v -0.219207 1.167945 -0.529213
v -0.243570 1.277773 -0.588030
v -0.258572 1.396944 -0.624249
v -0.263638 1.520878 -0.636479
v -0.258572 1.644811 -0.624249
v -0.243570 1.763982 -0.588030
v -0.219207 1.873811 -0.529213
v -0.186420 1.970076 -0.450059
v -0.146469 2.049079 -0.353609
v -0.100890 2.107784 -0.243570
v -0.051433 2.143934 -0.124171
v -0.026220 0.897821 -0.131819
v -0.051433 0.933972 -0.258572
v -0.074669 0.992676 -0.375389
v -0.095036 1.071679 -0.477780
v -0.111751 1.167945 -0.561809
v -0.124171 1.277773 -0.624249
v -0.131819 1.396944 -0.662699
v -0.134401 1.520878 -0.675682
v -0.131819 1.644811 -0.662699
v -0.124171 1.763982 -0.624249
v -0.111751 1.873811 -0.561809
v -0.095036 1.970076 -0.477780
v -0.074669 2.049079 -0.375389
v -0.051433 2.107784 -0.258572
v -0.026220 2.143934 -0.131819
v 0.000000 0.897821 -0.134402
v 0.000000 0.933972 -0.263638
v 0.000000 0.992676 -0.382743
v 0.000000 1.071679 -0.487140
v 0.000000 1.167945 -0.572816
v -0.000000 1.277773 -0.636479
v 0.000000 1.396944 -0.675682
v 0.000000 1.520878 -0.688920
v 0.000000 1.644811 -0.675682
v -0.000000 1.763982 -0.636479
v 0.000000 1.873811 -0.572816
v 0.000000 1.970076 -0.487140
v 0.000000 2.049079 -0.382743
v 0.000000 2.107784 -0.263638
v 0.000000 2.143934 -0.134402
v 0.026220 0.897821 -0.131819
v 0.051433 0.933972 -0.258572
v 0.074670 0.992676 -0.375389
v 0.095036 1.071679 -0.477780
v 0.111751 1.167945 -0.561809
v 0.124171 1.277773 -0.624249
v 0.131819 1.396944 -0.662699
v 0.134402 1.520878 -0.675682
v 0.131819 1.644811 -0.662699
v 0.124171 1.763982 -0.624249
v 0.111751 1.873811 -0.561809
v 0.095036 1.970076 -0.477780
v 0.074670 2.049079 -0.375389
v 0.051433 2.107784 -0.258572
v 0.026220 2.143934 -0.131819
v 0.051433 0.897821 -0.124171
v 0.100890 0.933972 -0.243570
v 0.146470 0.992676 -0.353609
v 0.186420 1.071679 -0.450059
v 0.219207 1.167945 -0.529213
v 0.243570 1.277773 -0.588030
v 0.258573 1.396944 -0.624249
v 0.263638 1.520878 -0.636479
v 0.258573 1.644811 -0.624249
v 0.243570 1.763982 -0.588030
v 0.219207 1.873811 -0.529213
v 0.186420 1.970076 -0.450059
v 0.146470 2.049079 -0.353609
v 0.100890 2.107784 -0.243570
v 0.051433 2.143934 -0.124171
v 0.074669 0.897821 -0.111751
v 0.146470 0.933972 -0.219207
v 0.212641 0.992676 -0.318239
v 0.270640 1.071679 -0.405042
v 0.318239 1.167945 -0.476279
v 0.353609 1.277773 -0.529213
v 0.375389 1.396944 -0.561809
v 0.382743 1.520878 -0.572815
v 0.375389 1.644811 -0.561809
v 0.353609 1.763982 -0.529213
v 0.318239 1.873811 -0.476279
v 0.270640 1.970076 -0.405042
v 0.212641 2.049079 -0.318239
v 0.146470 2.107784 -0.219207
v 0.074669 2.143934 -0.111751
v 0.095036 0.897821 -0.095036
v 0.186420 0.933972 -0.186420
v 0.270640 0.992676 -0.270640
v 0.344460 1.071679 -0.344460
v 0.405042 1.167945 -0.405042
v 0.450059 1.277773 -0.450059
v 0.477780 1.396944 -0.477779
v 0.487140 1.520878 -0.487139
v 0.477780 1.644811 -0.477779
v 0.450059 1.763982 -0.450059
v 0.405042 1.873811 -0.405042
v 0.344460 1.970076 -0.344460
v 0.270640 2.049079 -0.270640
v 0.186420 2.107784 -0.186420
v 0.095036 2.143934 -0.095036
v 0.111751 0.897821 -0.074669
v 0.219207 0.933972 -0.146470
v 0.318239 0.992676 -0.212641
v 0.405042 1.071679 -0.270640
v 0.476279 1.167945 -0.318239
v 0.529213 1.277773 -0.353609
v 0.561809 1.396944 -0.375389
v 0.572816 1.520878 -0.382743
v 0.561809 1.644811 -0.375389
v 0.529213 1.763982 -0.353609
v 0.476279 1.873811 -0.318239
v 0.405042 1.970076 -0.270640
v 0.318239 2.049079 -0.212641
v 0.219207 2.107784 -0.146470
v 0.111751 2.143934 -0.074669
v 0.124171 0.897821 -0.051433
v 0.243570 0.933972 -0.100890
v 0.353609 0.992676 -0.146469
v 0.450059 1.071679 -0.186420
v 0.529213 1.167945 -0.219207
v 0.588030 1.277773 -0.243570
v 0.624249 1.396944 -0.258572
v 0.636479 1.520878 -0.263638
v 0.624249 1.644811 -0.258572
v 0.588030 1.763982 -0.243570
v 0.529213 1.873811 -0.219207
v 0.450059 1.970076 -0.186420
v 0.353609 2.049079 -0.146469
v 0.243570 2.107784 -0.100890
v 0.124171 2.143934 -0.051433
v 0.131819 0.897821 -0.026220
v 0.258572 0.933972 -0.051433
v 0.375389 0.992676 -0.074669
v 0.477780 1.071679 -0.095036
v 0.561809 1.167945 -0.111751
v 0.624249 1.277773 -0.124171
v 0.662699 1.396944 -0.131819
v 0.675682 1.520878 -0.134401
v 0.662699 1.644811 -0.131819
v 0.624249 1.763982 -0.124171
v 0.561809 1.873811 -0.111751
v 0.477780 1.970076 -0.095036
v 0.375389 2.049079 -0.074669
v 0.258572 2.107784 -0.051433
v 0.131819 2.143934 -0.026220
v 0.134402 0.897821 0.000000
v 0.263638 0.933972 0.000000
v 0.382743 0.992676 0.000000
v 0.487140 1.071679 0.000000
v 0.572816 1.167945 0.000000
v 0.636479 1.277773 0.000000
v 0.675682 1.396944 0.000000
v 0.688919 1.520878 0.000000
v 0.675682 1.644811 0.000000
v 0.636479 1.763982 0.000000
v 0.572816 1.873811 0.000000
v 0.487140 1.970076 0.000000
v 0.382743 2.049079 0.000000
v 0.263638 2.107784 0.000000
v 0.134402 2.143934 0.000000
v 0.131819 0.897821 0.026220
v 0.258572 0.933972 0.051433
v 0.375389 0.992676 0.074670
v 0.477780 1.071679 0.095036
v 0.561809 1.167945 0.111751
v 0.624249 1.277773 0.124171
v 0.662699 1.396944 0.131819
v 0.675682 1.520878 0.134402
v 0.662699 1.644811 0.131819
v 0.624249 1.763982 0.124171
v 0.561809 1.873811 0.111751
v 0.477780 1.970076 0.095036
v 0.375389 2.049079 0.074670
v 0.258572 2.107784 0.051433
v 0.131819 2.143934 0.026220
v 0.124171 0.897821 0.051433
v 0.243570 0.933972 0.100890
v 0.353608 0.992676 0.146470
v 0.450059 1.071679 0.186420
v 0.529213 1.167945 0.219207
v 0.588030 1.277773 0.243570
v 0.624249 1.396944 0.258573
v 0.636478 1.520878 0.263638
v 0.624249 1.644811 0.258573
v 0.588030 1.763982 0.243570
v 0.529213 1.873811 0.219207
v 0.450059 1.970076 0.186420
v 0.353608 2.049079 0.146470
v 0.243570 2.107784 0.100890
v 0.124171 2.143934 0.051433
v 0.111751 0.897821 0.074669
v 0.219207 0.933972 0.146470
v 0.318239 0.992676 0.212641
v 0.405042 1.071679 0.270640
v 0.476279 1.167945 0.318239
v 0.529213 1.277773 0.353609
v 0.561809 1.396944 0.375389
v 0.572815 1.520878 0.382743
v 0.561809 1.644811 0.375389
v 0.529213 1.763982 0.353609
v 0.476279 1.873811 0.318239
v 0.405042 1.970076 0.270640
v 0.318239 2.049079 0.212641
v 0.219207 2.107784 0.146470
v 0.111751 2.143934 0.074669
v 0.095036 0.897821 0.095036
v 0.186420 0.933972 0.186420
v 0.270640 0.992676 0.270640
v 0.344460 1.071679 0.344460
v 0.405042 1.167945 0.405042
v 0.450058 1.277773 0.450058
v 0.477779 1.396944 0.477780
v 0.487139 1.520878 0.487140
v 0.477779 1.644811 0.477780
v 0.450058 1.763982 0.450058
v 0.405042 1.873811 0.405042
v 0.344460 1.970076 0.344460
v 0.270640 2.049079 0.270640
v 0.186420 2.107784 0.186420
v 0.095036 2.143934 0.095036
v 0.074669 0.897821 0.111751
v 0.146469 0.933972 0.219207
v 0.212641 0.992676 0.318239
v 0.270640 1.071679 0.405042
v 0.318239 1.167945 0.476279
v 0.353609 1.277773 0.529213
v 0.375389 1.396944 0.561809
v 0.382743 1.520878 0.572816
v 0.375389 1.644811 0.561809
v 0.353609 1.763982 0.529213
v 0.318239 1.873811 0.476279
v 0.270640 1.970076 0.405042
v 0.212641 2.049079 0.318239
v 0.146469 2.107784 0.219207
v 0.074669 2.143934 0.111751
v 0.051433 0.897821 0.124171
v 0.100890 0.933972 0.243570
v 0.146469 0.992676 0.353609
v 0.186420 1.071679 0.450059
v 0.219207 1.167945 0.529213
v 0.243570 1.277773 0.588030
v 0.258572 1.396944 0.624249
v 0.263638 1.520878 0.636478
v 0.258572 1.644811 0.624249
v 0.243570 1.763982 0.588030
v 0.219207 1.873811 0.529213
v 0.186420 1.970076 0.450059
v 0.146469 2.049079 0.353609
v 0.100890 2.107784 0.243570
v 0.051433 2.143934 0.124171
v 0.026220 0.897821 0.131819
v 0.051433 0.933972 0.258572
v 0.074669 0.992676 0.375389
v 0.095036 1.071679 0.477780
v 0.111751 1.167945 0.561809
v 0.124171 1.277773 0.624249
v 0.131819 1.396944 0.662699
v 0.134401 1.520878 0.675682
v 0.131819 1.644811 0.662699
v 0.124171 1.763982 0.624249
v 0.111751 1.873811 0.561809
v 0.095036 1.970076 0.477780
v 0.074669 2.049079 0.375389
v 0.051433 2.107784 0.258572
v 0.026220 2.143934 0.131819
v -0.000000 0.897821 0.134401
v -0.000000 0.933972 0.263638
v -0.000000 1.071679 0.487140
v -0.000000 1.277773 0.636479
v -0.000000 1.763982 0.636479
v -0.000000 1.970076 0.487140
v -0.000000 2.049079 0.382743
v -0.000000 2.107784 0.263638
v -0.000000 2.143934 0.134401
g corpo
v 0.000000 0.895972 0.000000
v 0.000000 0.744973 -0.555570
v 0.000000 0.497775 -0.831470
v 0.000000 0.174795 -0.980785
v 0.000000 0.000000 -1.000000
v 0.000000 -0.174795 -0.980785
v 0.000000 -0.497775 -0.831470
v 0.000000 -0.895972 0.000000
v 0.038060 0.878756 -0.191342
v 0.074658 0.827770 -0.375330
v 0.108386 0.744973 -0.544895
v 0.137950 0.633548 -0.693520
v 0.162212 0.497775 -0.815493
v 0.180240 0.342874 -0.906127
v 0.191342 0.174795 -0.961940
v 0.195090 0.000000 -0.980785
v 0.191342 -0.174795 -0.961940
v 0.180240 -0.342874 -0.906127
v 0.162212 -0.497775 -0.815493
v 0.137950 -0.633548 -0.693520
v 0.108386 -0.744973 -0.544895
v 0.074658 -0.827770 -0.375330
v 0.038060 -0.878756 -0.191342
v 0.074658 0.878756 -0.180240
v 0.146447 0.827770 -0.353553
v 0.212608 0.744973 -0.513280
v 0.270598 0.633548 -0.653281
v 0.318190 0.497775 -0.768178
v 0.353553 0.342874 -0.853553
v 0.375330 0.174795 -0.906127
v 0.382683 0.000000 -0.923879
v 0.375330 -0.174795 -0.906127
v 0.353553 -0.342874 -0.853553
v 0.318190 -0.497775 -0.768178
v 0.270598 -0.633548 -0.653281
v 0.212608 -0.744973 -0.513280
v 0.146447 -0.827770 -0.353553
v 0.074658 -0.878756 -0.180240
v 0.108386 0.878756 -0.162212
v 0.212608 0.827770 -0.318190
v 0.308658 0.744973 -0.461940
v 0.392847 0.633548 -0.587938
v 0.461940 0.497775 -0.691342
v 0.513280 0.342874 -0.768178
v 0.544895 0.174795 -0.815493
v 0.555570 0.000000 -0.831469
v 0.544895 -0.174795 -0.815493
v 0.513280 -0.342874 -0.768178
v 0.461940 -0.497775 -0.691342
v 0.392847 -0.633548 -0.587938
v 0.308658 -0.744973 -0.461940
v 0.212608 -0.827770 -0.318190
v 0.108386 -0.878756 -0.162212
v 0.137950 0.878756 -0.137950
v 0.270598 0.827770 -0.270598
v 0.392847 0.744973 -0.392847
v 0.500000 0.633548 -0.500000
v 0.587938 0.497775 -0.587938
v 0.653281 0.342874 -0.653281
v 0.693520 0.174795 -0.693520
v 0.707107 0.000000 -0.707107
v 0.693520 -0.174795 -0.693520
v 0.653281 -0.342874 -0.653281
v 0.587938 -0.497775 -0.587938
v 0.500000 -0.633548 -0.500000
v 0.392847 -0.744973 -0.392847
v 0.270598 -0.827770 -0.270598
v 0.137950 -0.878756 -0.137950
v 0.162212 0.878756 -0.108386
v 0.318190 0.827770 -0.212608
v 0.461940 0.744973 -0.308658
v 0.587938 0.633548 -0.392847
v 0.691342 0.497775 -0.461940
v 0.768178 0.342874 -0.513280
v 0.815493 0.174795 -0.544895
v 0.831470 0.000000 -0.555570
v 0.815493 -0.174795 -0.544895
v 0.768178 -0.342874 -0.513280
v 0.691342 -0.497775 -0.461940
v 0.587938 -0.633548 -0.392847
v 0.461940 -0.744973 -0.308658
v 0.318190 -0.827770 -0.212608
v 0.162212 -0.878756 -0.108386
v 0.180240 0.878756 -0.074658
v 0.353553 0.827770 -0.146447
v 0.513280 0.744973 -0.212607
v 0.653281 0.633548 -0.270598
v 0.768178 0.497775 -0.318190
v 0.853553 0.342874 -0.353553
v 0.906127 0.174795 -0.375330
v 0.923879 0.000000 -0.382683
v 0.906127 -0.174795 -0.375330
v 0.853553 -0.342874 -0.353553
v 0.768178 -0.497775 -0.318190
v 0.653281 -0.633548 -0.270598
v 0.513280 -0.744973 -0.212607
v 0.353553 -0.827770 -0.146447
v 0.180240 -0.878756 -0.074658
v 0.191342 0.878756 -0.038060
v 0.375330 0.827770 -0.074658
v 0.544895 0.744973 -0.108386
v 0.693520 0.633548 -0.137950
v 0.815493 0.497775 -0.162212
v 0.906127 0.342874 -0.180240
v 0.961940 0.174795 -0.191342
v 0.980785 0.000000 -0.195090
v 0.961940 -0.174795 -0.191342
v 0.906127 -0.342874 -0.180240
v 0.815493 -0.497775 -0.162212
v 0.693520 -0.633548 -0.137950
v 0.544895 -0.744973 -0.108386
v 0.375330 -0.827770 -0.074658
v 0.191342 -0.878756 -0.038060
v 0.195090 0.878756 0.000000
v 0.382683 0.827770 0.000000
v 0.555570 0.744973 0.000000
v 0.707107 0.633548 -0.000000
v 0.831469 0.497775 0.000000
v 0.923879 0.342874 -0.000000
v 0.980785 0.174795 0.000000
v 1.000000 0.000000 0.000000
v 0.980785 -0.174795 0.000000
v 0.923879 -0.342874 -0.000000
v 0.831469 -0.497775 0.000000
v 0.707107 -0.633548 -0.000000
v 0.555570 -0.744973 0.000000
v 0.382683 -0.827770 0.000000
v 0.195090 -0.878756 0.000000
v 0.191342 0.878756 0.038060
v 0.375330 0.827770 0.074658
v 0.544895 0.744973 0.108386
v 0.693520 0.633548 0.137950
v 0.815493 0.497775 0.162212
v 0.906127 0.342874 0.180240
v 0.961940 0.174795 0.191342
v 0.980785 0.000000 0.195090
v 0.961940 -0.174795 0.191342
v 0.906127 -0.342874 0.180240
v 0.815493 -0.497775 0.162212
v 0.693520 -0.633548 0.137950
v 0.544895 -0.744973 0.108386
v 0.375330 -0.827770 0.074658
v 0.191342 -0.878756 0.038060
v 0.180240 0.878756 0.074658
v 0.353553 0.827770 0.146447
v 0.513280 0.744973 0.212608
v 0.653281 0.633548 0.270598
v 0.768178 0.497775 0.318190
v 0.853553 0.342874 0.353553
v 0.906127 0.174795 0.375330
v 0.923879 0.000000 0.382683
v 0.906127 -0.174795 0.375330
v 0.853553 -0.342874 0.353553
v 0.768178 -0.497775 0.318190
v 0.653281 -0.633548 0.270598
v 0.513280 -0.744973 0.212608
v 0.353553 -0.827770 0.146447
v 0.180240 -0.878756 0.074658
v 0.162212 0.878756 0.108386
v 0.318190 0.827770 0.212608
v 0.461940 0.744973 0.308658
v 0.587938 0.633548 0.392847
v 0.691341 0.497775 0.461940
v 0.768178 0.342874 0.513280
v 0.815493 0.174795 0.544895
v 0.831469 0.000000 0.555570
v 0.815493 -0.174795 0.544895
v 0.768178 -0.342874 0.513280
v 0.691341 -0.497775 0.461940
v 0.587938 -0.633548 0.392847
v 0.461940 -0.744973 0.308658
v 0.318190 -0.827770 0.212608
v 0.162212 -0.878756 0.108386
v 0.137950 0.878756 0.137950
v 0.270598 0.827770 0.270598
v 0.392847 0.744973 0.392847
v 0.500000 0.633548 0.500000
v 0.587938 0.497775 0.587938
v 0.653281 0.342874 0.653281
v 0.693520 0.174795 0.693520
v 0.707106 0.000000 0.707107
v 0.693520 -0.174795 0.693520
v 0.653281 -0.342874 0.653281
v 0.587938 -0.497775 0.587938
v 0.500000 -0.633548 0.500000
v 0.392847 -0.744973 0.392847
v 0.270598 -0.827770 0.270598
v 0.137950 -0.878756 0.137950
v 0.108386 0.878756 0.162212
v 0.212607 0.827770 0.318190
v 0.308658 0.744973 0.461940
v 0.392847 0.633548 0.587938
v 0.461940 0.497775 0.691342
v 0.513280 0.342874 0.768178
v 0.544895 0.174795 0.815493
v 0.555570 0.000000 0.831469
v 0.544895 -0.174795 0.815493
v 0.513280 -0.342874 0.768178
v 0.461940 -0.497775 0.691342
v 0.392847 -0.633548 0.587938
v 0.308658 -0.744973 0.461940
v 0.212607 -0.827770 0.318190
v 0.108386 -0.878756 0.162212
v 0.074658 0.878756 0.180240
v 0.146447 0.827770 0.353553
v 0.212607 0.744973 0.513280
v 0.270598 0.633548 0.653281
v 0.318189 0.497775 0.768178
v 0.353553 0.342874 0.853553
v 0.375330 0.174795 0.906127
v 0.382683 0.000000 0.923879
v 0.375330 -0.174795 0.906127
v 0.353553 -0.342874 0.853553
v 0.318189 -0.497775 0.768178
v 0.270598 -0.633548 0.653281
v 0.212607 -0.744973 0.513280
v 0.146447 -0.827770 0.353553
v 0.074658 -0.878756 0.180240
v 0.038060 0.878756 0.191342
v 0.074658 0.827770 0.375330
v 0.108386 0.744973 0.544895
v 0.137950 0.633548 0.693520
v 0.162212 0.497775 0.815493
v 0.180240 0.342874 0.906127
v 0.191342 0.174795 0.961939
v 0.195090 0.000000 0.980785
v 0.191342 -0.174795 0.961939
v 0.180240 -0.342874 0.906127
v 0.162212 -0.497775 0.815493
v 0.137950 -0.633548 0.693520
v 0.108386 -0.744973 0.544895
v 0.074658 -0.827770 0.375330
v 0.038060 -0.878756 0.191342
v -0.000000 0.878756 0.195090
v -0.000000 0.827770 0.382683
v -0.000000 0.744973 0.555570
v -0.000000 0.633548 0.707107
v -0.000000 0.497775 0.831469
v 0.000000 0.342874 0.923879
v -0.000000 0.174795 0.980785
v -0.000000 0.000000 0.999999
v -0.000000 -0.174795 0.980785
v 0.000000 -0.342874 0.923879
v -0.000000 -0.497775 0.831469
v -0.000000 -0.633548 0.707107
v -0.000000 -0.744973 0.555570
v -0.000000 -0.827770 0.382683
v -0.000000 -0.878756 0.195090
v -0.038060 0.878756 0.191342
v -0.074658 0.827770 0.375330
v -0.108386 0.744973 0.544895
v -0.137950 0.633548 0.693520
v -0.162212 0.497775 0.815493
v -0.180240 0.342874 0.906127
v -0.191342 0.174795 0.961939
v -0.195091 0.000000 0.980785
v -0.191342 -0.174795 0.961939
v -0.180240 -0.342874 0.906127
v -0.162212 -0.497775 0.815493
v -0.137950 -0.633548 0.693520
v -0.108386 -0.744973 0.544895
v -0.074658 -0.827770 0.375330
v -0.038060 -0.878756 0.191342
v -0.074658 0.878756 0.180240
v -0.146447 0.827770 0.353553
v -0.212608 0.744973 0.513280
v -0.270598 0.633548 0.653281
v -0.318190 0.497775 0.768177
v -0.353553 0.342874 0.853553
v -0.375330 0.174795 0.906127
v -0.382683 0.000000 0.923879
v -0.375330 -0.174795 0.906127
v -0.353553 -0.342874 0.853553
v -0.318190 -0.497775 0.768177
v -0.270598 -0.633548 0.653281
v -0.212608 -0.744973 0.513280
v -0.146447 -0.827770 0.353553
v -0.074658 -0.878756 0.180240
v -0.108386 0.878756 0.162212
v -0.212608 0.827770 0.318190
v -0.308658 0.744973 0.461939
v -0.392847 0.633548 0.587938
v -0.461940 0.497775 0.691341
v -0.513280 0.342874 0.768178
v -0.544895 0.174795 0.815493
v -0.555570 0.000000 0.831469
v -0.544895 -0.174795 0.815493
v -0.513280 -0.342874 0.768178
v -0.461940 -0.497775 0.691341
v -0.392847 -0.633548 0.587938
v -0.308658 -0.744973 0.461939
v -0.212608 -0.827770 0.318190
v -0.108386 -0.878756 0.162212
v -0.137950 0.878756 0.137950
v -0.270598 0.827770 0.270598
v -0.392847 0.744973 0.392847
v -0.500000 0.633548 0.500000
v -0.587938 0.497775 0.587937
v -0.653281 0.342874 0.653281
v -0.693520 0.174795 0.693520
v -0.707106 0.000000 0.707106
v -0.693520 -0.174795 0.693520
v -0.653281 -0.342874 0.653281
v -0.587938 -0.497775 0.587937
v -0.500000 -0.633548 0.500000
v -0.392847 -0.744973 0.392847
v -0.270598 -0.827770 0.270598
v -0.137950 -0.878756 0.137950
v -0.162212 0.878756 0.108386
v -0.318190 0.827770 0.212607
v -0.461940 0.744973 0.308658
v -0.587938 0.633548 0.392847
v -0.691341 0.497775 0.461939
v -0.768177 0.342874 0.513280
v -0.815493 0.174795 0.544895
v -0.831469 0.000000 0.555569
v -0.815493 -0.174795 0.544895
v -0.768177 -0.342874 0.513280
v -0.691341 -0.497775 0.461939
v -0.587938 -0.633548 0.392847
v -0.461940 -0.744973 0.308658
v -0.318190 -0.827770 0.212607
v -0.162212 -0.878756 0.108386
v -0.180240 0.878756 0.074658
v -0.353553 0.827770 0.146447
v -0.513280 0.744973 0.212607
v -0.653281 0.633548 0.270598
v -0.768177 0.497775 0.318189
v -0.853553 0.342874 0.353553
v -0.906127 0.174795 0.375330
v -0.923879 0.000000 0.382683
v -0.906127 -0.174795 0.375330
v -0.853553 -0.342874 0.353553
v -0.768177 -0.497775 0.318189
v -0.653281 -0.633548 0.270598
v -0.513280 -0.744973 0.212607
v -0.353553 -0.827770 0.146447
v -0.180240 -0.878756 0.074658
v -0.191342 0.878756 0.038060
v -0.375330 0.827770 0.074658
v -0.544895 0.744973 0.108386
v -0.693520 0.633548 0.137950
v -0.815493 0.497775 0.162211
v -0.906127 0.342874 0.180240
v -0.961939 0.174795 0.191341
v -0.980784 0.000000 0.195090
v -0.961939 -0.174795 0.191341
v -0.906127 -0.342874 0.180240
v -0.815493 -0.497775 0.162211
v -0.693520 -0.633548 0.137950
v -0.544895 -0.744973 0.108386
v -0.375330 -0.827770 0.074658
v -0.191342 -0.878756 0.038060
v -0.195090 0.878756 -0.000000
v -0.382683 0.827770 -0.000000
v -0.555570 0.744973 -0.000000
v -0.707107 0.633548 -0.000000
v -0.831469 0.497775 -0.000000
v -0.923879 0.342874 -0.000000
v -0.980785 0.174795 -0.000000
v -0.999999 0.000000 -0.000000
v -0.980785 -0.174795 -0.000000
v -0.923879 -0.342874 -0.000000
v -0.831469 -0.497775 -0.000000
v -0.707107 -0.633548 -0.000000
v -0.555570 -0.744973 -0.000000
v -0.382683 -0.827770 -0.000000
v -0.195090 -0.878756 -0.000000
v -0.191342 0.878756 -0.038060
v -0.375330 0.827770 -0.074658
v -0.544895 0.744973 -0.108386
v -0.693520 0.633548 -0.137950
v -0.815493 0.497775 -0.162212
v -0.906127 0.342874 -0.180240
v -0.961939 0.174795 -0.191342
v -0.980784 0.000000 -0.195091
v -0.961939 -0.174795 -0.191342
v -0.906127 -0.342874 -0.180240
v -0.815493 -0.497775 -0.162212
v -0.693520 -0.633548 -0.137950
v -0.544895 -0.744973 -0.108386
v -0.375330 -0.827770 -0.074658
v -0.191342 -0.878756 -0.038060
v -0.180240 0.878756 -0.074658
v -0.353553 0.827770 -0.146447
v -0.513279 0.744973 -0.212607
v -0.653281 0.633548 -0.270598
v -0.768177 0.497775 -0.318190
v -0.853553 0.342874 -0.353553
v -0.906127 0.174795 -0.375330
v -0.923878 0.000000 -0.382683
v -0.906127 -0.174795 -0.375330
v -0.853553 -0.342874 -0.353553
v -0.768177 -0.497775 -0.318190
v -0.653281 -0.633548 -0.270598
v -0.513279 -0.744973 -0.212607
v -0.353553 -0.827770 -0.146447
v -0.180240 -0.878756 -0.074658
v -0.162212 0.878756 -0.108386
v -0.318189 0.827770 -0.212607
v -0.461939 0.744973 -0.308658
v -0.587938 0.633548 -0.392847
v -0.691341 0.497775 -0.461940
v -0.768177 0.342874 -0.513280
v -0.815493 0.174795 -0.544895
v -0.831468 0.000000 -0.555570
v -0.815493 -0.174795 -0.544895
v -0.768177 -0.342874 -0.513280
v -0.691341 -0.497775 -0.461940
v -0.587938 -0.633548 -0.392847
v -0.461939 -0.744973 -0.308658
v -0.318189 -0.827770 -0.212607
v -0.162212 -0.878756 -0.108386
v -0.137950 0.878756 -0.137950
v -0.270598 0.827770 -0.270598
v -0.392847 0.744973 -0.392847
v -0.500000 0.633548 -0.500000
v -0.587937 0.497775 -0.587938
v -0.653281 0.342874 -0.653281
v -0.693519 0.174795 -0.693520
v -0.707106 0.000000 -0.707106
v -0.693519 -0.174795 -0.693520
v -0.653281 -0.342874 -0.653281
v -0.587937 -0.497775 -0.587938
v -0.500000 -0.633548 -0.500000
v -0.392847 -0.744973 -0.392847
v -0.270598 -0.827770 -0.270598
v -0.137950 -0.878756 -0.137950
v -0.108386 0.878756 -0.162212
v -0.212607 0.827770 -0.318190
v -0.308658 0.744973 -0.461939
v -0.392847 0.633548 -0.587938
v -0.461939 0.497775 -0.691341
v -0.513280 0.342874 -0.768177
v -0.544895 0.174795 -0.815493
v -0.555569 0.000000 -0.831469
v -0.544895 -0.174795 -0.815493
v -0.513280 -0.342874 -0.768177
v -0.461939 -0.497775 -0.691341
v -0.392847 -0.633548 -0.587938
v -0.308658 -0.744973 -0.461939
v -0.212607 -0.827770 -0.318190
v -0.108386 -0.878756 -0.162212
v -0.074658 0.878756 -0.180240
v -0.146446 0.827770 -0.353553
v -0.212607 0.744973 -0.513279
v -0.270598 0.633548 -0.653281
v -0.318189 0.497775 -0.768177
v -0.353553 0.342874 -0.853553
v -0.375330 0.174795 -0.906127
v -0.382683 0.000000 -0.923879
v -0.375330 -0.174795 -0.906127
v -0.353553 -0.342874 -0.853553
v -0.318189 -0.497775 -0.768177
v -0.270598 -0.633548 -0.653281
v -0.212607 -0.744973 -0.513279
v -0.146446 -0.827770 -0.353553
v -0.074658 -0.878756 -0.180240
v -0.038060 0.878756 -0.191342
v -0.074658 0.827770 -0.375330
v -0.108386 0.744973 -0.544895
v -0.137950 0.633548 -0.693520
v -0.162211 0.497775 -0.815493
v -0.180240 0.342874 -0.906127
v -0.191341 0.174795 -0.961939
v -0.195090 0.000000 -0.980784
v -0.191341 -0.174795 -0.961939
v -0.180240 -0.342874 -0.906127
v -0.162211 -0.497775 -0.815493
v -0.137950 -0.633548 -0.693520
v -0.108386 -0.744973 -0.544895
v -0.074658 -0.827770 -0.375330
v -0.038060 -0.878756 -0.191342
v 0.000000 0.878756 -0.195090
v 0.000000 0.827770 -0.382683
v 0.000000 0.633548 -0.707107
v 0.000000 0.342874 -0.923879
v 0.000000 -0.342874 -0.923879
v 0.000000 -0.633548 -0.707107
v 0.000000 -0.744973 -0.555570
v 0.000000 -0.827770 -0.382683
v 0.000000 -0.878756 -0.195090
g pernas
v 0.000000 -0.790866 0.000000
v 0.000000 -1.014830 -0.855550
v 0.000000 -1.381479 -1.280420
v 0.000000 -1.860529 -1.510359
v 0.000000 -2.119789 -1.539949
v 0.000000 -2.379049 -1.510359
v 0.000000 -2.858099 -1.280420
v 0.000000 -3.448712 0.000000
v 0.058611 -0.816401 -0.294656
v 0.114969 -0.892025 -0.577989
v 0.166909 -1.014830 -0.839110
v 0.212435 -1.180099 -1.067985
v 0.249798 -1.381479 -1.255817
v 0.277560 -1.611233 -1.395390
v 0.294656 -1.860529 -1.481338
v 0.300429 -2.119789 -1.510359
v 0.294656 -2.379049 -1.481338
v 0.277560 -2.628346 -1.395390
v 0.249798 -2.858099 -1.255817
v 0.212435 -3.059480 -1.067985
v 0.166909 -3.224748 -0.839110
v 0.114969 -3.347554 -0.577989
v 0.058611 -3.423177 -0.294656
v 0.114969 -0.816401 -0.277560
v 0.225520 -0.892025 -0.544454
v 0.327405 -1.014830 -0.790425
v 0.416707 -1.180099 -1.006020
v 0.489996 -1.381479 -1.182954
v 0.544454 -1.611233 -1.314428
v 0.577989 -1.860529 -1.395390
v 0.589313 -2.119789 -1.422727
v 0.577989 -2.379049 -1.395390
v 0.544454 -2.628346 -1.314428
v 0.489996 -2.858099 -1.182954
v 0.416707 -3.059480 -1.006020
v 0.327405 -3.224748 -0.790425
v 0.225520 -3.347554 -0.544454
v 0.114969 -3.423177 -0.277560
v 0.166909 -0.816401 -0.249798
v 0.327405 -0.892025 -0.489996
v 0.475318 -1.014830 -0.711363
v 0.604965 -1.180099 -0.905394
v 0.711363 -1.381479 -1.064631
v 0.790425 -1.611233 -1.182954
v 0.839110 -1.860529 -1.255817
v 0.855550 -2.119789 -1.280420
v 0.839110 -2.379049 -1.255817
v 0.790425 -2.628346 -1.182954
v 0.711363 -2.858099 -1.064631
v 0.604965 -3.059480 -0.905394
v 0.475318 -3.224748 -0.711363
v 0.327405 -3.347554 -0.489996
v 0.166909 -3.423177 -0.249798
v 0.212435 -0.816401 -0.212435
v 0.416707 -0.892025 -0.416707
v 0.604965 -1.014830 -0.604965
v 0.769974 -1.180099 -0.769974
v 0.905394 -1.381479 -0.905394
v 1.006020 -1.611233 -1.006020
v 1.067985 -1.860529 -1.067985
v 1.088908 -2.119789 -1.088908
v 1.067985 -2.379049 -1.067985
v 1.006020 -2.628346 -1.006020
v 0.905394 -2.858099 -0.905394
v 0.769974 -3.059480 -0.769974
v 0.604965 -3.224748 -0.604965
v 0.416707 -3.347554 -0.416707
v 0.212435 -3.423177 -0.212435
v 0.249798 -0.816401 -0.166909
v 0.489996 -0.892025 -0.327405
v 0.711363 -1.014830 -0.475318
v 0.905394 -1.180099 -0.604965
v 1.064631 -1.381479 -0.711363
v 1.182954 -1.611233 -0.790425
v 1.255817 -1.860529 -0.839110
v 1.280420 -2.119789 -0.855549
v 1.255817 -2.379049 -0.839110
v 1.182954 -2.628346 -0.790425
v 1.064631 -2.858099 -0.711363
v 0.905394 -3.059480 -0.604965
v 0.711363 -3.224748 -0.475318
v 0.489996 -3.347554 -0.327405
v 0.249798 -3.423177 -0.166909
v 0.277560 -0.816401 -0.114969
v 0.544454 -0.892025 -0.225520
v 0.790425 -1.014830 -0.327405
v 1.006020 -1.180099 -0.416707
v 1.182954 -1.381479 -0.489995
v 1.314428 -1.611233 -0.544454
v 1.395390 -1.860529 -0.577989
v 1.422727 -2.119789 -0.589312
v 1.395390 -2.379049 -0.577989
v 1.314428 -2.628346 -0.544454
v 1.182954 -2.858099 -0.489995
v 1.006020 -3.059480 -0.416707
v 0.790425 -3.224748 -0.327405
v 0.544454 -3.347554 -0.225520
v 0.277560 -3.423177 -0.114969
v 0.294656 -0.816401 -0.058611
v 0.577989 -0.892025 -0.114969
v 0.839110 -1.014830 -0.166909
v 1.067985 -1.180099 -0.212435
v 1.255817 -1.381479 -0.249797
v 1.395390 -1.611233 -0.277560
v 1.481338 -1.860529 -0.294656
v 1.510359 -2.119789 -0.300429
v 1.481338 -2.379049 -0.294656
v 1.395390 -2.628346 -0.277560
v 1.255817 -2.858099 -0.249797
v 1.067985 -3.059480 -0.212435
v 0.839110 -3.224748 -0.166909
v 0.577989 -3.347554 -0.114969
v 0.294656 -3.423177 -0.058611
v 0.300429 -0.816401 0.000000
v 0.589313 -0.892025 0.000000
v 0.855549 -1.014830 0.000000
v 1.088908 -1.180099 -0.000000
v 1.280420 -1.381479 0.000000
v 1.422727 -1.611233 -0.000000
v 1.510359 -1.860529 0.000000
v 1.539948 -2.119789 0.000000
v 1.510359 -2.379049 0.000000
v 1.422727 -2.628346 -0.000000
v 1.280420 -2.858099 0.000000
v 1.088908 -3.059480 -0.000000
v 0.855549 -3.224748 0.000000
v 0.589313 -3.347554 0.000000
v 0.300429 -3.423177 0.000000
v 0.294656 -0.816401 0.058611
v 0.577989 -0.892025 0.114969
v 0.839110 -1.014830 0.166909
v 1.067985 -1.180099 0.212435
v 1.255817 -1.381479 0.249798
v 1.395390 -1.611233 0.277560
v 1.481337 -1.860529 0.294656
v 1.510358 -2.119789 0.300429
v 1.481337 -2.379049 0.294656
v 1.395390 -2.628346 0.277560
v 1.255817 -2.858099 0.249798
v 1.067985 -3.059480 0.212435
v 0.839110 -3.224748 0.166909
v 0.577989 -3.347554 0.114969
v 0.294656 -3.423177 0.058611
v 0.277560 -0.816401 0.114969
v 0.544454 -0.892025 0.225520
v 0.790424 -1.014830 0.327405
v 1.006020 -1.180099 0.416707
v 1.182954 -1.381479 0.489996
v 1.314428 -1.611233 0.544454
v 1.395389 -1.860529 0.577989
v 1.422726 -2.119789 0.589313
v 1.395389 -2.379049 0.577989
v 1.314428 -2.628346 0.544454
v 1.182954 -2.858099 0.489996
v 1.006020 -3.059480 0.416707
v 0.790424 -3.224748 0.327405
v 0.544454 -3.347554 0.225520
v 0.277560 -3.423177 0.114969
v 0.249798 -0.816401 0.166909
v 0.489996 -0.892025 0.327405
v 0.711363 -1.014830 0.475318
v 0.905394 -1.180099 0.604965
v 1.064630 -1.381479 0.711363
v 1.182954 -1.611233 0.790425
v 1.255817 -1.860529 0.839110
v 1.280420 -2.119789 0.855550
v 1.255817 -2.379049 0.839110
v 1.182954 -2.628346 0.790425
v 1.064630 -2.858099 0.711363
v 0.905394 -3.059480 0.604965
v 0.711363 -3.224748 0.475318
v 0.489996 -3.347554 0.327405
v 0.249798 -3.423177 0.166909
v 0.212435 -0.816401 0.212435
v 0.416707 -0.892025 0.416707
v 0.604965 -1.014830 0.604965
v 0.769974 -1.180099 0.769974
v 0.905394 -1.381479 0.905394
v 1.006020 -1.611233 1.006020
v 1.067985 -1.860529 1.067985
v 1.088907 -2.119789 1.088908
v 1.067985 -2.379049 1.067985
v 1.006020 -2.628346 1.006020
v 0.905394 -2.858099 0.905394
v 0.769974 -3.059480 0.769974
v 0.604965 -3.224748 0.604965
v 0.416707 -3.347554 0.416707
v 0.212435 -3.423177 0.212435
v 0.166909 -0.816401 0.249798
v 0.327405 -0.892025 0.489996
v 0.475318 -1.014830 0.711363
v 0.604965 -1.180099 0.905394
v 0.711363 -1.381479 1.064630
v 0.790425 -1.611233 1.182954
v 0.839110 -1.860529 1.255817
v 0.855549 -2.119789 1.280420
v 0.839110 -2.379049 1.255817
v 0.790425 -2.628346 1.182954
v 0.711363 -2.858099 1.064630
v 0.604965 -3.059480 0.905394
v 0.475318 -3.224748 0.711363
v 0.327405 -3.347554 0.489996
v 0.166909 -3.423177 0.249798
v 0.114969 -0.816401 0.277560
v 0.225520 -0.892025 0.544454
v 0.327404 -1.014830 0.790424
v 0.416707 -1.180099 1.006020
v 0.489995 -1.381479 1.182954
v 0.544454 -1.611233 1.314428
v 0.577989 -1.860529 1.395389
v 0.589312 -2.119789 1.422726
v 0.577989 -2.379049 1.395389
v 0.544454 -2.628346 1.314428
v 0.489995 -2.858099 1.182954
v 0.416707 -3.059480 1.006020
v 0.327404 -3.224748 0.790424
v 0.225520 -3.347554 0.544454
v 0.114969 -3.423177 0.277560
v 0.058611 -0.816401 0.294656
v 0.114969 -0.892025 0.577989
v 0.166909 -1.014830 0.839110
v 0.212435 -1.180099 1.067985
v 0.249797 -1.381479 1.255817
v 0.277560 -1.611233 1.395389
v 0.294656 -1.860529 1.481337
v 0.300428 -2.119789 1.510358
v 0.294656 -2.379049 1.481337
v 0.277560 -2.628346 1.395389
v 0.249797 -2.858099 1.255817
v 0.212435 -3.059480 1.067985
v 0.166909 -3.224748 0.839110
v 0.114969 -3.347554 0.577989
v 0.058611 -3.423177 0.294656
v -0.000000 -0.816401 0.300429
v -0.000000 -0.892025 0.589313
v -0.000000 -1.014830 0.855549
v -0.000000 -1.180099 1.088908
v -0.000000 -1.381479 1.280420
v 0.000000 -1.611233 1.422727
v -0.000000 -1.860529 1.510358
v -0.000001 -2.119789 1.539948
v -0.000000 -2.379049 1.510358
v 0.000000 -2.628346 1.422727
v -0.000000 -2.858099 1.280420
v -0.000000 -3.059480 1.088908
v -0.000000 -3.224748 0.855549
v -0.000000 -3.347554 0.589313
v -0.000000 -3.423177 0.300429
v -0.058611 -0.816401 0.294656
v -0.114969 -0.892025 0.577989
v -0.166910 -1.014830 0.839110
v -0.212435 -1.180099 1.067985
v -0.249798 -1.381479 1.255817
v -0.277560 -1.611233 1.395389
v -0.294657 -1.860529 1.481337
v -0.300429 -2.119789 1.510358
v -0.294657 -2.379049 1.481337
v -0.277560 -2.628346 1.395389
v -0.249798 -2.858099 1.255817
v -0.212435 -3.059480 1.067985
v -0.166910 -3.224748 0.839110
v -0.114969 -3.347554 0.577989
v -0.058611 -3.423177 0.294656
v -0.114969 -0.816401 0.277560
v -0.225520 -0.892025 0.544454
v -0.327405 -1.014830 0.790424
v -0.416707 -1.180099 1.006020
v -0.489996 -1.381479 1.182954
v -0.544454 -1.611233 1.314428
v -0.577989 -1.860529 1.395389
v -0.589313 -2.119789 1.422726
v -0.577989 -2.379049 1.395389
v -0.544454 -2.628346 1.314428
v -0.489996 -2.858099 1.182954
v -0.416707 -3.059480 1.006020
v -0.327405 -3.224748 0.790424
v -0.225520 -3.347554 0.544454
v -0.114969 -3.423177 0.277560
v -0.166909 -0.816401 0.249797
v -0.327405 -0.892025 0.489996
v -0.475318 -1.014830 0.711363
v -0.604965 -1.180099 0.905394
v -0.711363 -1.381479 1.064630
v -0.790424 -1.611233 1.182954
v -0.839110 -1.860529 1.255817
v -0.855549 -2.119789 1.280419
v -0.839110 -2.379049 1.255817
v -0.790424 -2.628346 1.182954
v -0.711363 -2.858099 1.064630
v -0.604965 -3.059480 0.905394
v -0.475318 -3.224748 0.711363
v -0.327405 -3.347554 0.489996
v -0.166909 -3.423177 0.249797
v -0.212435 -0.816401 0.212435
v -0.416707 -0.892025 0.416707
v -0.604965 -1.014830 0.604964
v -0.769974 -1.180099 0.769974
v -0.905394 -1.381479 0.905393
v -1.006019 -1.611233 1.006020
v -1.067985 -1.860529 1.067984
v -1.088908 -2.119789 1.088907
v -1.067985 -2.379049 1.067984
v -1.006019 -2.628346 1.006020
v -0.905394 -2.858099 0.905393
v -0.769974 -3.059480 0.769974
v -0.604965 -3.224748 0.604964
v -0.416707 -3.347554 0.416707
v -0.212435 -3.423177 0.212435
v -0.249797 -0.816401 0.166909
v -0.489996 -0.892025 0.327404
v -0.711363 -1.014830 0.475317
v -0.905394 -1.180099 0.604965
v -1.064630 -1.381479 0.711363
v -1.182954 -1.611233 0.790424
v -1.255817 -1.860529 0.839110
v -1.280420 -2.119789 0.855548
v -1.255817 -2.379049 0.839110
v -1.182954 -2.628346 0.790424
v -1.064630 -2.858099 0.711363
v -0.905394 -3.059480 0.604965
v -0.711363 -3.224748 0.475317
v -0.489996 -3.347554 0.327404
v -0.249797 -3.423177 0.166909
v -0.277560 -0.816401 0.114969
v -0.544454 -0.892025 0.225520
v -0.790424 -1.014830 0.327404
v -1.006020 -1.180099 0.416707
v -1.182954 -1.381479 0.489995
v -1.314428 -1.611233 0.544454
v -1.395389 -1.860529 0.577989
v -1.422726 -2.119789 0.589312
v -1.395389 -2.379049 0.577989
v -1.314428 -2.628346 0.544454
v -1.182954 -2.858099 0.489995
v -1.006020 -3.059480 0.416707
v -0.790424 -3.224748 0.327404
v -0.544454 -3.347554 0.225520
v -0.277560 -3.423177 0.114969
v -0.294656 -0.816401 0.058611
v -0.577989 -0.892025 0.114969
v -0.839110 -1.014830 0.166909
v -1.067985 -1.180099 0.212435
v -1.255817 -1.381479 0.249797
v -1.395389 -1.611233 0.277560
v -1.481337 -1.860529 0.294656
v -1.510358 -2.119789 0.300428
v -1.481337 -2.379049 0.294656
v -1.395389 -2.628346 0.277560
v -1.255817 -2.858099 0.249797
v -1.067985 -3.059480 0.212435
v -0.839110 -3.224748 0.166909
v -0.577989 -3.347554 0.114969
v -0.294656 -3.423177 0.058611
v -0.300429 -0.816401 -0.000000
v -0.589313 -0.892025 -0.000000
v -0.855549 -1.014830 -0.000000
v -1.088908 -1.180099 -0.000000
v -1.280420 -1.381479 -0.000000
v -1.422726 -1.611233 -0.000000
v -1.510358 -1.860529 -0.000000
v -1.539947 -2.119789 -0.000001
v -1.510358 -2.379049 -0.000000
v -1.422726 -2.628346 -0.000000
v -1.280420 -2.858099 -0.000000
v -1.088908 -3.059480 -0.000000
v -0.855549 -3.224748 -0.000000
v -0.589313 -3.347554 -0.000000
v -0.300429 -3.423177 -0.000000
v -0.294656 -0.816401 -0.058611
v -0.577989 -0.892025 -0.114969
v -0.839110 -1.014830 -0.166910
v -1.067985 -1.180099 -0.212435
v -1.255817 -1.381479 -0.249798
v -1.395389 -1.611233 -0.277560
v -1.481337 -1.860529 -0.294657
v -1.510357 -2.119789 -0.300429
v -1.481337 -2.379049 -0.294657
v -1.395389 -2.628346 -0.277560
v -1.255817 -2.858099 -0.249798
v -1.067985 -3.059480 -0.212435
v -0.839110 -3.224748 -0.166910
v -0.577989 -3.347554 -0.114969
v -0.294656 -3.423177 -0.058611
v -0.277560 -0.816401 -0.114969
v -0.544454 -0.892025 -0.225520
v -0.790424 -1.014830 -0.327405
v -1.006020 -1.180099 -0.416707
v -1.182953 -1.381479 -0.489996
v -1.314428 -1.611233 -0.544454
v -1.395389 -1.860529 -0.577989
v -1.422725 -2.119789 -0.589313
v -1.395389 -2.379049 -0.577989
v -1.314428 -2.628346 -0.544454
v -1.182953 -2.858099 -0.489996
v -1.006020 -3.059480 -0.416707
v -0.790424 -3.224748 -0.327405
v -0.544454 -3.347554 -0.225520
v -0.277560 -3.423177 -0.114969
v -0.249797 -0.816401 -0.166909
v -0.489995 -0.892025 -0.327405
v -0.711363 -1.014830 -0.475318
v -0.905394 -1.180099 -0.604965
v -1.064630 -1.381479 -0.711363
v -1.182954 -1.611233 -0.790424
v -1.255817 -1.860529 -0.839110
v -1.280419 -2.119789 -0.855549
v -1.255817 -2.379049 -0.839110
v -1.182954 -2.628346 -0.790424
v -1.064630 -2.858099 -0.711363
v -0.905394 -3.059480 -0.604965
v -0.711363 -3.224748 -0.475318
v -0.489995 -3.347554 -0.327405
v -0.249797 -3.423177 -0.166909
v -0.212435 -0.816401 -0.212435
v -0.416707 -0.892025 -0.416707
v -0.604964 -1.014830 -0.604965
v -0.769974 -1.180099 -0.769974
v -0.905393 -1.381479 -0.905394
v -1.006019 -1.611233 -1.006019
v -1.067984 -1.860529 -1.067985
v -1.088906 -2.119789 -1.088907
v -1.067984 -2.379049 -1.067985
v -1.006019 -2.628346 -1.006019
v -0.905393 -2.858099 -0.905394
v -0.769974 -3.059480 -0.769974
v -0.604964 -3.224748 -0.604965
v -0.416707 -3.347554 -0.416707
v -0.212435 -3.423177 -0.212435
v -0.166909 -0.816401 -0.249797
v -0.327404 -0.892025 -0.489995
v -0.475317 -1.014830 -0.711363
v -0.604965 -1.180099 -0.905394
v -0.711363 -1.381479 -1.064630
v -0.790424 -1.611233 -1.182954
v -0.839110 -1.860529 -1.255817
v -0.855548 -2.119789 -1.280419
v -0.839110 -2.379049 -1.255817
v -0.790424 -2.628346 -1.182954
v -0.711363 -2.858099 -1.064630
v -0.604965 -3.059480 -0.905394
v -0.475317 -3.224748 -0.711363
v -0.327404 -3.347554 -0.489995
v -0.166909 -3.423177 -0.249797
v -0.114969 -0.816401 -0.277560
v -0.225520 -0.892025 -0.544454
v -0.327404 -1.014830 -0.790424
v -0.416707 -1.180099 -1.006020
v -0.489995 -1.381479 -1.182953
v -0.544454 -1.611233 -1.314428
v -0.577989 -1.860529 -1.395389
v -0.589311 -2.119789 -1.422726
v -0.577989 -2.379049 -1.395389
v -0.544454 -2.628346 -1.314428
v -0.489995 -2.858099 -1.182953
v -0.416707 -3.059480 -1.006020
v -0.327404 -3.224748 -0.790424
v -0.225520 -3.347554 -0.544454
v -0.114969 -3.423177 -0.277560
v -0.058611 -0.816401 -0.294656
v -0.114969 -0.892025 -0.577989
v -0.166909 -1.014830 -0.839110
v -0.212435 -1.180099 -1.067985
v -0.249797 -1.381479 -1.255817
v -0.277560 -1.611233 -1.395389
v -0.294656 -1.860529 -1.481337
v -0.300428 -2.119789 -1.510357
v -0.294656 -2.379049 -1.481337
v -0.277560 -2.628346 -1.395389
v -0.249797 -2.858099 -1.255817
v -0.212435 -3.059480 -1.067985
v -0.166909 -3.224748 -0.839110
v -0.114969 -3.347554 -0.577989
v -0.058611 -3.423177 -0.294656
v 0.000000 -0.816401 -0.300429
v 0.000000 -0.892025 -0.589312
v 0.000000 -1.180099 -1.088908
v 0.000000 -1.611233 -1.422726
v 0.000000 -2.628346 -1.422726
v 0.000000 -3.059480 -1.088908
v 0.000000 -3.224748 -0.855549
v 0.000000 -3.347554 -0.589312
v 0.000000 -3.423177 -0.300429
g nariz
v 0.000000 1.308540 -0.655643
v 0.031150 1.311608 -0.655706
v 0.061102 1.320692 -0.655891
v 0.088707 1.335444 -0.656191
v 0.112902 1.355296 -0.656595
v 0.132759 1.379487 -0.657087
v 0.147514 1.407086 -0.657649
v 0.156600 1.437032 -0.658258
v 0.159668 1.468175 -0.658892
v 0.156600 1.499319 -0.659525
v 0.147514 1.529265 -0.660135
v 0.132759 1.556864 -0.660696
v 0.112902 1.581054 -0.661189
v 0.088707 1.600907 -0.661592
v 0.061102 1.615659 -0.661893
v 0.031150 1.624743 -0.662078
v 0.000000 1.627810 -0.662140
v -0.031150 1.624743 -0.662078
v -0.061102 1.615659 -0.661893
v -0.088707 1.600907 -0.661592
v -0.112902 1.581054 -0.661189
v -0.132759 1.556864 -0.660696
v -0.147514 1.529265 -0.660135
v -0.156600 1.499319 -0.659525
v -0.159668 1.468175 -0.658892
v -0.156600 1.437032 -0.658258
v -0.147514 1.407086 -0.657649
v -0.132759 1.379487 -0.657087
v -0.112902 1.355296 -0.656595
v -0.088707 1.335444 -0.656191
v -0.061102 1.320692 -0.655891
v -0.031150 1.311608 -0.655706
v 0.000000 1.452265 -1.440793
g olho_esquerdo
v 0.318521 1.845536 -0.636287
v 0.318521 1.827728 -0.694994
v 0.318521 1.798573 -0.724149
v 0.318521 1.760481 -0.739927
v 0.318521 1.739866 -0.741957
v 0.318521 1.719251 -0.739927
v 0.318521 1.681159 -0.724149
v 0.318521 1.634196 -0.636287
v 0.322543 1.843506 -0.656506
v 0.326410 1.837492 -0.675948
v 0.329974 1.827728 -0.693866
v 0.333098 1.814586 -0.709571
v 0.335662 1.798573 -0.722460
v 0.337567 1.780304 -0.732038
v 0.338740 1.760481 -0.737935
v 0.339136 1.739866 -0.739927
v 0.338740 1.719251 -0.737935
v 0.337567 1.699428 -0.732038
v 0.335662 1.681159 -0.722460
v 0.333098 1.665146 -0.709571
v 0.329974 1.652005 -0.693866
v 0.326410 1.642240 -0.675948
v 0.322543 1.636227 -0.656506
v 0.326410 1.843506 -0.655333
v 0.333996 1.837492 -0.673647
v 0.340987 1.827728 -0.690525
v 0.347115 1.814586 -0.705319
v 0.352144 1.798573 -0.717461
v 0.355881 1.780304 -0.726482
v 0.358182 1.760481 -0.732038
v 0.358959 1.739866 -0.733914
v 0.358182 1.719251 -0.732038
v 0.355881 1.699428 -0.726482
v 0.352144 1.681159 -0.717461
v 0.347115 1.665146 -0.705319
v 0.340987 1.652005 -0.690525
v 0.333996 1.642240 -0.673647
v 0.326410 1.636227 -0.655333
v 0.329974 1.843506 -0.653428
v 0.340987 1.837492 -0.669910
v 0.351137 1.827728 -0.685100
v 0.360033 1.814586 -0.698415
v 0.367334 1.798573 -0.709341
v 0.372759 1.780304 -0.717461
v 0.376100 1.760481 -0.722460
v 0.377228 1.739866 -0.724149
v 0.376100 1.719251 -0.722460
v 0.372759 1.699428 -0.717461
v 0.367334 1.681159 -0.709341
v 0.360033 1.665146 -0.698415
v 0.351137 1.652005 -0.685100
v 0.340987 1.642240 -0.669910
v 0.329974 1.636227 -0.653428
v 0.333098 1.843506 -0.650864
v 0.347115 1.837492 -0.664881
v 0.360033 1.827728 -0.677799
v 0.371356 1.814586 -0.689122
v 0.380648 1.798573 -0.698415
v 0.387553 1.780304 -0.705319
v 0.391805 1.760481 -0.709571
v 0.393241 1.739866 -0.711007
v 0.391805 1.719251 -0.709571
v 0.387553 1.699428 -0.705319
v 0.380648 1.681159 -0.698415
v 0.371356 1.665146 -0.689122
v 0.360033 1.652005 -0.677799
v 0.347115 1.642240 -0.664881
v 0.333098 1.636227 -0.650864
v 0.335662 1.843506 -0.647740
v 0.352144 1.837492 -0.658753
v 0.367334 1.827728 -0.668903
v 0.380648 1.814586 -0.677799
v 0.391575 1.798573 -0.685100
v 0.399694 1.780304 -0.690525
v 0.404694 1.760481 -0.693866
v 0.406382 1.739866 -0.694994
v 0.404694 1.719251 -0.693866
v 0.399694 1.699428 -0.690525
v 0.391575 1.681159 -0.685100
v 0.380648 1.665146 -0.677799
v 0.367334 1.652005 -0.668903
v 0.352144 1.642240 -0.658753
v 0.335662 1.636227 -0.647740
v 0.337567 1.843506 -0.644176
v 0.355881 1.837492 -0.651762
v 0.372759 1.827728 -0.658753
v 0.387553 1.814586 -0.664881
v 0.399694 1.798573 -0.669910
v 0.408716 1.780304 -0.673647
v 0.414271 1.760481 -0.675948
v 0.416147 1.739866 -0.676725
v 0.414271 1.719251 -0.675948
v 0.408716 1.699428 -0.673647
v 0.399694 1.681159 -0.669910
v 0.387553 1.665146 -0.664881
v 0.372759 1.652005 -0.658753
v 0.355881 1.642240 -0.651762
v 0.337567 1.636227 -0.644176
v 0.338740 1.843506 -0.640309
v 0.358182 1.837492 -0.644176
v 0.376100 1.827728 -0.647740
v 0.391805 1.814586 -0.650864
v 0.404694 1.798573 -0.653428
v 0.414271 1.780304 -0.655333
v 0.420169 1.760481 -0.656506
v 0.422161 1.739866 -0.656902
v 0.420169 1.719251 -0.656506
v 0.414271 1.699428 -0.655333
v 0.404694 1.681159 -0.653428
v 0.391805 1.665146 -0.650864
v 0.376100 1.652005 -0.647740
v 0.358182 1.642240 -0.644176
v 0.338740 1.636227 -0.640309
v 0.339136 1.843506 -0.636287
v 0.358959 1.837492 -0.636287
v 0.377228 1.827728 -0.636287
v 0.393241 1.814586 -0.636287
v 0.406382 1.798573 -0.636287
v 0.416147 1.780304 -0.636287
v 0.422161 1.760481 -0.636287
v 0.424191 1.739866 -0.636287
v 0.422161 1.719251 -0.636287
v 0.416147 1.699428 -0.636287
v 0.406382 1.681159 -0.636287
v 0.393241 1.665146 -0.636287
v 0.377228 1.652005 -0.636287
v 0.358959 1.642240 -0.636287
v 0.339136 1.636227 -0.636287
v 0.338740 1.843506 -0.632265
v 0.358182 1.837492 -0.628398
v 0.376100 1.827728 -0.624834
v 0.391805 1.814586 -0.621710
v 0.404694 1.798573 -0.619146
v 0.414271 1.780304 -0.617241
v 0.420169 1.760481 -0.616068
v 0.422161 1.739866 -0.615672
v 0.420169 1.719251 -0.616068
v 0.414271 1.699428 -0.617241
v 0.404694 1.681159 -0.619146
v 0.391805 1.665146 -0.621710
v 0.376100 1.652005 -0.624834
v 0.358182 1.642240 -0.628398
v 0.338740 1.636227 -0.632265
v 0.337567 1.843506 -0.628398
v 0.355881 1.837492 -0.620812
v 0.372759 1.827728 -0.613821
v 0.387553 1.814586 -0.607693
v 0.399694 1.798573 -0.602664
v 0.408716 1.780304 -0.598927
v 0.414271 1.760481 -0.596626
v 0.416147 1.739866 -0.595849
v 0.414271 1.719251 -0.596626
v 0.408716 1.699428 -0.598927
v 0.399694 1.681159 -0.602664
v 0.387553 1.665146 -0.607693
v 0.372759 1.652005 -0.613821
v 0.355881 1.642240 -0.620812
v 0.337567 1.636227 -0.628398
v 0.335662 1.843506 -0.624834
v 0.352144 1.837492 -0.613821
v 0.367334 1.827728 -0.603671
v 0.380648 1.814586 -0.594775
v 0.391575 1.798573 -0.587474
v 0.399694 1.780304 -0.582049
v 0.404694 1.760481 -0.578708
v 0.406382 1.739866 -0.577580
v 0.404694 1.719251 -0.578708
v 0.399694 1.699428 -0.582049
v 0.391575 1.681159 -0.587474
v 0.380648 1.665146 -0.594775
v 0.367334 1.652005 -0.603671
v 0.352144 1.642240 -0.613821
v 0.335662 1.636227 -0.624834
v 0.333098 1.843506 -0.621710
v 0.347115 1.837492 -0.607693
v 0.360033 1.827728 -0.594775
v 0.371356 1.814586 -0.583452
v 0.380648 1.798573 -0.574160
v 0.387553 1.780304 -0.567255
v 0.391805 1.760481 -0.563003
v 0.393241 1.739866 -0.561567
v 0.391805 1.719251 -0.563003
v 0.387553 1.699428 -0.567255
v 0.380648 1.681159 -0.574160
v 0.371356 1.665146 -0.583452
v 0.360033 1.652005 -0.594775
v 0.347115 1.642240 -0.607693
v 0.333098 1.636227 -0.621710
v 0.329974 1.843506 -0.619146
v 0.340987 1.837492 -0.602664
v 0.351137 1.827728 -0.587474
v 0.360033 1.814586 -0.574160
v 0.367334 1.798573 -0.563233
v 0.372759 1.780304 -0.555114
v 0.376100 1.760481 -0.550114
v 0.377228 1.739866 -0.548426
v 0.376100 1.719251 -0.550114
v 0.372759 1.699428 -0.555114
v 0.367334 1.681159 -0.563233
v 0.360033 1.665146 -0.574160
v 0.351137 1.652005 -0.587474
v 0.340987 1.642240 -0.602664
v 0.329974 1.636227 -0.619146
v 0.326410 1.843506 -0.617241
v 0.333996 1.837492 -0.598927
v 0.340987 1.827728 -0.582049
v 0.347115 1.814586 -0.567255
v 0.352144 1.798573 -0.555114
v 0.355881 1.780304 -0.546092
v 0.358182 1.760481 -0.540537
v 0.358959 1.739866 -0.538661
v 0.358182 1.719251 -0.540537
v 0.355881 1.699428 -0.546092
v 0.352144 1.681159 -0.555114
v 0.347115 1.665146 -0.567255
v 0.340987 1.652005 -0.582049
v 0.333996 1.642240 -0.598927
v 0.326410 1.636227 -0.617241
v 0.322543 1.843506 -0.616068
v 0.326410 1.837492 -0.596626
v 0.329974 1.827728 -0.578708
v 0.333098 1.814586 -0.563003
v 0.335662 1.798573 -0.550114
v 0.337567 1.780304 -0.540537
v 0.338740 1.760481 -0.534639
v 0.339136 1.739866 -0.532648
v 0.338740 1.719251 -0.534639
v 0.337567 1.699428 -0.540537
v 0.335662 1.681159 -0.550114
v 0.333098 1.665146 -0.563003
v 0.329974 1.652005 -0.578708
v 0.326410 1.642240 -0.596626
v 0.322543 1.636227 -0.616068
v 0.318521 1.843506 -0.615672
v 0.318521 1.837492 -0.595849
v 0.318521 1.827728 -0.577580
v 0.318521 1.814586 -0.561567
v 0.318521 1.798573 -0.548426
v 0.318521 1.780304 -0.538661
v 0.318521 1.760481 -0.532648
v 0.318521 1.739866 -0.530617
v 0.318521 1.719251 -0.532648
v 0.318521 1.699428 -0.538661
v 0.318521 1.681159 -0.548426
v 0.318521 1.665146 -0.561567
v 0.318521 1.652005 -0.577580
v 0.318521 1.642240 -0.595849
v 0.318521 1.636227 -0.615672
v 0.314499 1.843506 -0.616068
v 0.310632 1.837492 -0.596626
v 0.307068 1.827728 -0.578708
v 0.303944 1.814586 -0.563003
v 0.301380 1.798573 -0.550114
v 0.299475 1.780304 -0.540537
v 0.298302 1.760481 -0.534639
v 0.297906 1.739866 -0.532648
v 0.298302 1.719251 -0.534639
v 0.299475 1.699428 -0.540537
v 0.301380 1.681159 -0.550114
v 0.303944 1.665146 -0.563003
v 0.307068 1.652005 -0.578708
v 0.310632 1.642240 -0.596626
v 0.314499 1.636227 -0.616068
v 0.310632 1.843506 -0.617241
v 0.303046 1.837492 -0.598927
v 0.296055 1.827728 -0.582049
v 0.289927 1.814586 -0.567255
v 0.284898 1.798573 -0.555114
v 0.281161 1.780304 -0.546092
v 0.278860 1.760481 -0.540537
v 0.278083 1.739866 -0.538661
v 0.278860 1.719251 -0.540537
v 0.281161 1.699428 -0.546092
v 0.284898 1.681159 -0.555114
v 0.289927 1.665146 -0.567255
v 0.296055 1.652005 -0.582049
v 0.303046 1.642240 -0.598927
v 0.310632 1.636227 -0.617241
v 0.307068 1.843506 -0.619146
v 0.296055 1.837492 -0.602664
v 0.285905 1.827728 -0.587474
v 0.277009 1.814586 -0.574160
v 0.269708 1.798573 -0.563233
v 0.264283 1.780304 -0.555114
v 0.260942 1.760481 -0.550114
v 0.259814 1.739866 -0.548426
v 0.260942 1.719251 -0.550114
v 0.264283 1.699428 -0.555114
v 0.269708 1.681159 -0.563233
v 0.277009 1.665146 -0.574160
v 0.285905 1.652005 -0.587474
v 0.296055 1.642240 -0.602664
v 0.307068 1.636227 -0.619146
v 0.303944 1.843506 -0.621710
v 0.289927 1.837492 -0.607693
v 0.277009 1.827728 -0.594775
v 0.265686 1.814586 -0.583452
v 0.256394 1.798573 -0.574160
v 0.249489 1.780304 -0.567255
v 0.245237 1.760481 -0.563003
v 0.243801 1.739866 -0.561567
v 0.245237 1.719251 -0.563003
v 0.249489 1.699428 -0.567255
v 0.256394 1.681159 -0.574160
v 0.265686 1.665146 -0.583452
v 0.277009 1.652005 -0.594775
v 0.289927 1.642240 -0.607693
v 0.303944 1.636227 -0.621710
v 0.301380 1.843506 -0.624834
v 0.284898 1.837492 -0.613821
v 0.269708 1.827728 -0.603671
v 0.256394 1.814586 -0.594775
v 0.245467 1.798573 -0.587474
v 0.237348 1.780304 -0.582049
v 0.232348 1.760481 -0.578708
v 0.230660 1.739866 -0.577580
v 0.232348 1.719251 -0.578708
v 0.237348 1.699428 -0.582049
v 0.245467 1.681159 -0.587474
v 0.256394 1.665146 -0.594775
v 0.269708 1.652005 -0.603671
v 0.284898 1.642240 -0.613821
v 0.301380 1.636227 -0.624834
v 0.299475 1.843506 -0.628398
v 0.281161 1.837492 -0.620812
v 0.264283 1.827728 -0.613821
v 0.249489 1.814586 -0.607693
v 0.237348 1.798573 -0.602664
v 0.228326 1.780304 -0.598927
v 0.222771 1.760481 -0.596626
v 0.220895 1.739866 -0.595849
v 0.222771 1.719251 -0.596626
v 0.228326 1.699428 -0.598927
v 0.237348 1.681159 -0.602664
v 0.249489 1.665146 -0.607693
v 0.264283 1.652005 -0.613821
v 0.281161 1.642240 -0.620812
v 0.299475 1.636227 -0.628398
v 0.298302 1.843506 -0.632265
v 0.278860 1.837492 -0.628398
v 0.260942 1.827728 -0.624834
v 0.245237 1.814586 -0.621710
v 0.232348 1.798573 -0.619146
v 0.222771 1.780304 -0.617241
v 0.216873 1.760481 -0.616068
v 0.214882 1.739866 -0.615672
v 0.216873 1.719251 -0.616068
v 0.222771 1.699428 -0.617241
v 0.232348 1.681159 -0.619146
v 0.245237 1.665146 -0.621710
v 0.260942 1.652005 -0.624834
v 0.278860 1.642240 -0.628398
v 0.298302 1.636227 -0.632265
v 0.297906 1.843506 -0.636287
v 0.278083 1.837492 -0.636287
v 0.259814 1.827728 -0.636287
v 0.243801 1.814586 -0.636287
v 0.230660 1.798573 -0.636287
v 0.220895 1.780304 -0.636287
v 0.214882 1.760481 -0.636287
v 0.212851 1.739866 -0.636287
v 0.214882 1.719251 -0.636287
v 0.220895 1.699428 -0.636287
v 0.230660 1.681159 -0.636287
v 0.243801 1.665146 -0.636287
v 0.259814 1.652005 -0.636287
v 0.278083 1.642240 -0.636287
v 0.297906 1.636227 -0.636287
v 0.298302 1.843506 -0.640309
v 0.278860 1.837492 -0.644176
v 0.260942 1.827728 -0.647740
v 0.245237 1.814586 -0.650864
v 0.232348 1.798573 -0.653428
v 0.222771 1.780304 -0.655333
v 0.216873 1.760481 -0.656506
v 0.214882 1.739866 -0.656902
v 0.216873 1.719251 -0.656506
v 0.222771 1.699428 -0.655333
v 0.232348 1.681159 -0.653428
v 0.245237 1.665146 -0.650864
v 0.260942 1.652005 -0.647740
v 0.278860 1.642240 -0.644176
v 0.298302 1.636227 -0.640309
v 0.299475 1.843506 -0.644176
v 0.281161 1.837492 -0.651762
v 0.264283 1.827728 -0.658753
v 0.249489 1.814586 -0.664881
v 0.237348 1.798573 -0.669910
v 0.228326 1.780304 -0.673647
v 0.222771 1.760481 -0.675948
v 0.220895 1.739866 -0.676725
v 0.222771 1.719251 -0.675948
v 0.228326 1.699428 -0.673647
v 0.237348 1.681159 -0.669910
v 0.249489 1.665146 -0.664881
v 0.264283 1.652005 -0.658753
v 0.281161 1.642240 -0.651762
v 0.299475 1.636227 -0.644176
v 0.301380 1.843506 -0.647740
v 0.284898 1.837492 -0.658753
v 0.269708 1.827728 -0.668903
v 0.256394 1.814586 -0.677799
v 0.245467 1.798573 -0.685100
v 0.237348 1.780304 -0.690525
v 0.232348 1.760481 -0.693866
v 0.230660 1.739866 -0.694994
v 0.232348 1.719251 -0.693866
v 0.237348 1.699428 -0.690525
v 0.245467 1.681159 -0.685100
v 0.256394 1.665146 -0.677799
v 0.269708 1.652005 -0.668903
v 0.284898 1.642240 -0.658753
v 0.301380 1.636227 -0.647740
v 0.303944 1.843506 -0.650864
v 0.289927 1.837492 -0.664881
v 0.277009 1.827728 -0.677799
v 0.265686 1.814586 -0.689122
v 0.256394 1.798573 -0.698415
v 0.249489 1.780304 -0.705319
v 0.245237 1.760481 -0.709571
v 0.243801 1.739866 -0.711007
v 0.245237 1.719251 -0.709571
v 0.249489 1.699428 -0.705319
v 0.256394 1.681159 -0.698415
v 0.265686 1.665146 -0.689122
v 0.277009 1.652005 -0.677799
v 0.289927 1.642240 -0.664881
v 0.303944 1.636227 -0.650864
v 0.307068 1.843506 -0.653428
v 0.296055 1.837492 -0.669910
v 0.285905 1.827728 -0.685100
v 0.277009 1.814586 -0.698415
v 0.269708 1.798573 -0.709341
v 0.264283 1.780304 -0.717461
v 0.260942 1.760481 -0.722460
v 0.259814 1.739866 -0.724149
v 0.260942 1.719251 -0.722460
v 0.264283 1.699428 -0.717461
v 0.269708 1.681159 -0.709341
v 0.277009 1.665146 -0.698415
v 0.285905 1.652005 -0.685100
v 0.296055 1.642240 -0.669910
v 0.307068 1.636227 -0.653428
v 0.310632 1.843506 -0.655333
v 0.303046 1.837492 -0.673647
v 0.296055 1.827728 -0.690525
v 0.289927 1.814586 -0.705319
v 0.284898 1.798573 -0.717461
v 0.281161 1.780304 -0.726482
v 0.278860 1.760481 -0.732038
v 0.278083 1.739866 -0.733913
v 0.278860 1.719251 -0.732038
v 0.281161 1.699428 -0.726482
v 0.284898 1.681159 -0.717461
v 0.289927 1.665146 -0.705319
v 0.296055 1.652005 -0.690525
v 0.303046 1.642240 -0.673647
v 0.310632 1.636227 -0.655333
v 0.314499 1.843506 -0.656506
v 0.310632 1.837492 -0.675948
v 0.307068 1.827728 -0.693866
v 0.303944 1.814586 -0.709571
v 0.301380 1.798573 -0.722460
v 0.299475 1.780304 -0.732038
v 0.298302 1.760481 -0.737935
v 0.297906 1.739866 -0.739927
v 0.298302 1.719251 -0.737935
v 0.299475 1.699428 -0.732038
v 0.301380 1.681159 -0.722460
v 0.303944 1.665146 -0.709571
v 0.307068 1.652005 -0.693866
v 0.310632 1.642240 -0.675948
v 0.314499 1.636227 -0.656506
v 0.318521 1.843506 -0.656902
v 0.318521 1.837492 -0.676725
v 0.318521 1.814586 -0.711007
v 0.318521 1.780304 -0.733913
v 0.318521 1.699428 -0.733913
v 0.318521 1.665146 -0.711007
v 0.318521 1.652005 -0.694994
v 0.318521 1.642240 -0.676725
v 0.318521 1.636227 -0.656902
g olho_direito
v -0.330691 1.845536 -0.636287
v -0.330691 1.827728 -0.694994
v -0.330691 1.798573 -0.724149
v -0.330691 1.760481 -0.739927
v -0.330691 1.739866 -0.741957
v -0.330691 1.719251 -0.739927
v -0.330691 1.681159 -0.724149
v -0.330691 1.634196 -0.636287
v -0.326669 1.843506 -0.656506
v -0.322802 1.837492 -0.675948
v -0.319238 1.827728 -0.693866
v -0.316114 1.814586 -0.709571
v -0.313550 1.798573 -0.722460
v -0.311645 1.780304 -0.732038
v -0.310472 1.760481 -0.737935
v -0.310076 1.739866 -0.739927
v -0.310472 1.719251 -0.737935
v -0.311645 1.699428 -0.732038
v -0.313550 1.681159 -0.722460
v -0.316114 1.665146 -0.709571
v -0.319238 1.652005 -0.693866
v -0.322802 1.642240 -0.675948
v -0.326669 1.636227 -0.656506
v -0.322802 1.843506 -0.655333
v -0.315216 1.837492 -0.673647
v -0.308225 1.827728 -0.690525
v -0.302097 1.814586 -0.705319
v -0.297068 1.798573 -0.717461
v -0.293331 1.780304 -0.726482
v -0.291030 1.760481 -0.732038
v -0.290253 1.739866 -0.733914
v -0.291030 1.719251 -0.732038
v -0.293331 1.699428 -0.726482
v -0.297068 1.681159 -0.717461
v -0.302097 1.665146 -0.705319
v -0.308225 1.652005 -0.690525
v -0.315216 1.642240 -0.673647
v -0.322802 1.636227 -0.655333
v -0.319238 1.843506 -0.653428
v -0.308225 1.837492 -0.669910
v -0.298075 1.827728 -0.685100
v -0.289179 1.814586 -0.698415
v -0.281878 1.798573 -0.709341
v -0.276453 1.780304 -0.717461
v -0.273112 1.760481 -0.722460
v -0.271984 1.739866 -0.724149
v -0.273112 1.719251 -0.722460
v -0.276453 1.699428 -0.717461
v -0.281878 1.681159 -0.709341
v -0.289179 1.665146 -0.698415
v -0.298075 1.652005 -0.685100
v -0.308225 1.642240 -0.669910
v -0.319238 1.636227 -0.653428
v -0.316114 1.843506 -0.650864
v -0.302097 1.837492 -0.664881
v -0.289179 1.827728 -0.677799
v -0.277856 1.814586 -0.689122
v -0.268564 1.798573 -0.698415
v -0.261659 1.780304 -0.705319
v -0.257407 1.760481 -0.709571
v -0.255971 1.739866 -0.711007
v -0.257407 1.719251 -0.709571
v -0.261659 1.699428 -0.705319
v -0.268564 1.681159 -0.698415
v -0.277856 1.665146 -0.689122
v -0.289179 1.652005 -0.677799
v -0.302097 1.642240 -0.664881
v -0.316114 1.636227 -0.650864
v -0.313550 1.843506 -0.647740
v -0.297068 1.837492 -0.658753
v -0.281878 1.827728 -0.668903
v -0.268564 1.814586 -0.677799
v -0.257637 1.798573 -0.685100
v -0.249518 1.780304 -0.690525
v -0.244518 1.760481 -0.693866
v -0.242830 1.739866 -0.694994
v -0.244518 1.719251 -0.693866
v -0.249518 1.699428 -0.690525
v -0.257637 1.681159 -0.685100
v -0.268564 1.665146 -0.677799
v -0.281878 1.652005 -0.668903
v -0.297068 1.642240 -0.658753
v -0.313550 1.636227 -0.647740
v -0.311645 1.843506 -0.644176
v -0.293331 1.837492 -0.651762
v -0.276453 1.827728 -0.658753
v -0.261659 1.814586 -0.664881
v -0.249518 1.798573 -0.669910
v -0.240496 1.780304 -0.673647
v -0.234941 1.760481 -0.675948
v -0.233065 1.739866 -0.676725
v -0.234941 1.719251 -0.675948
v -0.240496 1.699428 -0.673647
v -0.249518 1.681159 -0.669910
v -0.261659 1.665146 -0.664881
v -0.276453 1.652005 -0.658753
v -0.293331 1.642240 -0.651762
v -0.311645 1.636227 -0.644176
v -0.310472 1.843506 -0.640309
v -0.291030 1.837492 -0.644176
v -0.273112 1.827728 -0.647740
v -0.257407 1.814586 -0.650864
v -0.244518 1.798573 -0.653428
v -0.234941 1.780304 -0.655333
v -0.229043 1.760481 -0.656506
v -0.227052 1.739866 -0.656902
v -0.229043 1.719251 -0.656506
v -0.234941 1.699428 -0.655333
v -0.244518 1.681159 -0.653428
v -0.257407 1.665146 -0.650864
v -0.273112 1.652005 -0.647740
v -0.291030 1.642240 -0.644176
v -0.310472 1.636227 -0.640309
v -0.310076 1.843506 -0.636287
v -0.290253 1.837492 -0.636287
v -0.271984 1.827728 -0.636287
v -0.255971 1.814586 -0.636287
v -0.242830 1.798573 -0.636287
v -0.233065 1.780304 -0.636287
v -0.227052 1.760481 -0.636287
v -0.225021 1.739866 -0.636287
v -0.227052 1.719251 -0.636287
v -0.233065 1.699428 -0.636287
v -0.242830 1.681159 -0.636287
v -0.255971 1.665146 -0.636287
v -0.271984 1.652005 -0.636287
v -0.290253 1.642240 -0.636287
v -0.310076 1.636227 -0.636287
v -0.310472 1.843506 -0.632265
v -0.291030 1.837492 -0.628398
v -0.273112 1.827728 -0.624834
v -0.257407 1.814586 -0.621710
v -0.244518 1.798573 -0.619146
v -0.234941 1.780304 -0.617241
v -0.229043 1.760481 -0.616068
v -0.227052 1.739866 -0.615672
v -0.229043 1.719251 -0.616068
v -0.234941 1.699428 -0.617241
v -0.244518 1.681159 -0.619146
v -0.257407 1.665146 -0.621710
v -0.273112 1.652005 -0.624834
v -0.291030 1.642240 -0.628398
v -0.310472 1.636227 -0.632265
v -0.311645 1.843506 -0.628398
v -0.293331 1.837492 -0.620812
v -0.276453 1.827728 -0.613821
v -0.261659 1.814586 -0.607693
v -0.249518 1.798573 -0.602664
v -0.240496 1.780304 -0.598927
v -0.234941 1.760481 -0.596626
v -0.233065 1.739866 -0.595849
v -0.234941 1.719251 -0.596626
v -0.240496 1.699428 -0.598927
v -0.249518 1.681159 -0.602664
v -0.261659 1.665146 -0.607693
v -0.276453 1.652005 -0.613821
v -0.293331 1.642240 -0.620812
v -0.311645 1.636227 -0.628398
v -0.313550 1.843506 -0.624834
v -0.297068 1.837492 -0.613821
v -0.281878 1.827728 -0.603671
v -0.268564 1.814586 -0.594775
v -0.257637 1.798573 -0.587474
v -0.249518 1.780304 -0.582049
v -0.244518 1.760481 -0.578708
v -0.242830 1.739866 -0.577580
v -0.244518 1.719251 -0.578708
v -0.249518 1.699428 -0.582049
v -0.257637 1.681159 -0.587474
v -0.268564 1.665146 -0.594775
v -0.281878 1.652005 -0.603671
v -0.297068 1.642240 -0.613821
v -0.313550 1.636227 -0.624834
v -0.316114 1.843506 -0.621710
v -0.302097 1.837492 -0.607693
v -0.289179 1.827728 -0.594775
v -0.277856 1.814586 -0.583452
v -0.268564 1.798573 -0.574160
v -0.261659 1.780304 -0.567255
v -0.257407 1.760481 -0.563003
v -0.255971 1.739866 -0.561567
v -0.257407 1.719251 -0.563003
v -0.261659 1.699428 -0.567255
v -0.268564 1.681159 -0.574160
v -0.277856 1.665146 -0.583452
v -0.289179 1.652005 -0.594775
v -0.302097 1.642240 -0.607693
v -0.316114 1.636227 -0.621710
v -0.319238 1.843506 -0.619146
v -0.308225 1.837492 -0.602664
v -0.298075 1.827728 -0.587474
v -0.289179 1.814586 -0.574160
v -0.281878 1.798573 -0.563233
v -0.276453 1.780304 -0.555114
v -0.273112 1.760481 -0.550114
v -0.271984 1.739866 -0.548426
v -0.273112 1.719251 -0.550114
v -0.276453 1.699428 -0.555114
v -0.281878 1.681159 -0.563233
v -0.289179 1.665146 -0.574160
v -0.298075 1.652005 -0.587474
v -0.308225 1.642240 -0.602664
v -0.319238 1.636227 -0.619146
v -0.322802 1.843506 -0.617241
v -0.315216 1.837492 -0.598927
v -0.308225 1.827728 -0.582049
v -0.302097 1.814586 -0.567255
v -0.297068 1.798573 -0.555114
v -0.293331 1.780304 -0.546092
v -0.291030 1.760481 -0.540537
v -0.290253 1.739866 -0.538661
v -0.291030 1.719251 -0.540537
v -0.293331 1.699428 -0.546092
v -0.297068 1.681159 -0.555114
v -0.302097 1.665146 -0.567255
v -0.308225 1.652005 -0.582049
v -0.315216 1.642240 -0.598927
v -0.322802 1.636227 -0.617241
v -0.326669 1.843506 -0.616068
v -0.322802 1.837492 -0.596626
v -0.319238 1.827728 -0.578708
v -0.316114 1.814586 -0.563003
v -0.313550 1.798573 -0.550114
v -0.311645 1.780304 -0.540537
v -0.310472 1.760481 -0.534639
v -0.310076 1.739866 -0.532648
v -0.310472 1.719251 -0.534639
v -0.311645 1.699428 -0.540537
v -0.313550 1.681159 -0.550114
v -0.316114 1.665146 -0.563003
v -0.319238 1.652005 -0.578708
v -0.322802 1.642240 -0.596626
v -0.326669 1.636227 -0.616068
v -0.330691 1.843506 -0.615672
v -0.330691 1.837492 -0.595849
v -0.330691 1.827728 -0.577580
v -0.330691 1.814586 -0.561567
v -0.330691 1.798573 -0.548426
v -0.330691 1.780304 -0.538661
v -0.330691 1.760481 -0.532648
v -0.330691 1.739866 -0.530617
v -0.330691 1.719251 -0.532648
v -0.330691 1.699428 -0.538661
v -0.330691 1.681159 -0.548426
v -0.330691 1.665146 -0.561567
v -0.330691 1.652005 -0.577580
v -0.330691 1.642240 -0.595849
v -0.330691 1.636227 -0.615672
v -0.334713 1.843506 -0.616068
v -0.338580 1.837492 -0.596626
v -0.342144 1.827728 -0.578708
v -0.345268 1.814586 -0.563003
v -0.347832 1.798573 -0.550114
v -0.349737 1.780304 -0.540537
v -0.350910 1.760481 -0.534639
v -0.351306 1.739866 -0.532648
v -0.350910 1.719251 -0.534639
v -0.349737 1.699428 -0.540537
v -0.347832 1.681159 -0.550114
v -0.345268 1.665146 -0.563003
v -0.342144 1.652005 -0.578708
v -0.338580 1.642240 -0.596626
v -0.334713 1.636227 -0.616068
v -0.338580 1.843506 -0.617241
v -0.346166 1.837492 -0.598927
v -0.353158 1.827728 -0.582049
v -0.359285 1.814586 -0.567255
v -0.364314 1.798573 -0.555114
v -0.368051 1.780304 -0.546092
v -0.370352 1.760481 -0.540537
v -0.371129 1.739866 -0.538661
v -0.370352 1.719251 -0.540537
v -0.368051 1.699428 -0.546092
v -0.364314 1.681159 -0.555114
v -0.359285 1.665146 -0.567255
v -0.353158 1.652005 -0.582049
v -0.346166 1.642240 -0.598927
v -0.338580 1.636227 -0.617241
v -0.342144 1.843506 -0.619146
v -0.353158 1.837492 -0.602664
v -0.363307 1.827728 -0.587474
v -0.372203 1.814586 -0.574160
v -0.379504 1.798573 -0.563233
v -0.384930 1.780304 -0.555114
v -0.388270 1.760481 -0.550114
v -0.389398 1.739866 -0.548426
v -0.388270 1.719251 -0.550114
v -0.384930 1.699428 -0.555114
v -0.379504 1.681159 -0.563233
v -0.372203 1.665146 -0.574160
v -0.363307 1.652005 -0.587474
v -0.353158 1.642240 -0.602664
v -0.342144 1.636227 -0.619146
v -0.345268 1.843506 -0.621710
v -0.359285 1.837492 -0.607693
v -0.372203 1.827728 -0.594775
v -0.383526 1.814586 -0.583452
v -0.392819 1.798573 -0.574160
v -0.399723 1.780304 -0.567255
v -0.403975 1.760481 -0.563003
v -0.405411 1.739866 -0.561567
v -0.403975 1.719251 -0.563003
v -0.399723 1.699428 -0.567255
v -0.392819 1.681159 -0.574160
v -0.383526 1.665146 -0.583452
v -0.372203 1.652005 -0.594775
v -0.359285 1.642240 -0.607693
v -0.345268 1.636227 -0.621710
v -0.347832 1.843506 -0.624834
v -0.364314 1.837492 -0.613821
v -0.379504 1.827728 -0.603671
v -0.392819 1.814586 -0.594775
v -0.403745 1.798573 -0.587474
v -0.411865 1.780304 -0.582049
v -0.416864 1.760481 -0.578708
v -0.418553 1.739866 -0.577580
v -0.416864 1.719251 -0.578708
v -0.411865 1.699428 -0.582049
v -0.403745 1.681159 -0.587474
v -0.392819 1.665146 -0.594775
v -0.379504 1.652005 -0.603671
v -0.364314 1.642240 -0.613821
v -0.347832 1.636227 -0.624834
v -0.349737 1.843506 -0.628398
v -0.368051 1.837492 -0.620812
v -0.384930 1.827728 -0.613821
v -0.399724 1.814586 -0.607693
v -0.411865 1.798573 -0.602664
v -0.420886 1.780304 -0.598927
v -0.426442 1.760481 -0.596626
v -0.428318 1.739866 -0.595849
v -0.426442 1.719251 -0.596626
v -0.420886 1.699428 -0.598927
v -0.411865 1.681159 -0.602664
v -0.399724 1.665146 -0.607693
v -0.384930 1.652005 -0.613821
v -0.368051 1.642240 -0.620812
v -0.349737 1.636227 -0.628398
v -0.350910 1.843506 -0.632265
v -0.370352 1.837492 -0.628398
v -0.388270 1.827728 -0.624834
v -0.403975 1.814586 -0.621710
v -0.416864 1.798573 -0.619146
v -0.426442 1.780304 -0.617241
v -0.432339 1.760481 -0.616068
v -0.434331 1.739866 -0.615672
v -0.432339 1.719251 -0.616068
v -0.426442 1.699428 -0.617241
v -0.416864 1.681159 -0.619146
v -0.403975 1.665146 -0.621710
v -0.388270 1.652005 -0.624834
v -0.370352 1.642240 -0.628398
v -0.350910 1.636227 -0.632265
v -0.351306 1.843506 -0.636287
v -0.371129 1.837492 -0.636287
v -0.389398 1.827728 -0.636287
v -0.405411 1.814586 -0.636287
v -0.418553 1.798573 -0.636287
v -0.428318 1.780304 -0.636287
v -0.434331 1.760481 -0.636287
v -0.436361 1.739866 -0.636287
v -0.434331 1.719251 -0.636287
v -0.428318 1.699428 -0.636287
v -0.418553 1.681159 -0.636287
v -0.405411 1.665146 -0.636287
v -0.389398 1.652005 -0.636287
v -0.371129 1.642240 -0.636287
v -0.351306 1.636227 -0.636287
v -0.350910 1.843506 -0.640309
v -0.370352 1.837492 -0.644176
v -0.388270 1.827728 -0.647740
v -0.403975 1.814586 -0.650864
v -0.416864 1.798573 -0.653428
v -0.426442 1.780304 -0.655333
v -0.432339 1.760481 -0.656506
v -0.434331 1.739866 -0.656902
v -0.432339 1.719251 -0.656506
v -0.426442 1.699428 -0.655333
v -0.416864 1.681159 -0.653428
v -0.403975 1.665146 -0.650864
v -0.388270 1.652005 -0.647740
v -0.370352 1.642240 -0.644176
v -0.350910 1.636227 -0.640309
v -0.349737 1.843506 -0.644176
v -0.368051 1.837492 -0.651762
v -0.384930 1.827728 -0.658753
v -0.399724 1.814586 -0.664881
v -0.411865 1.798573 -0.669910
v -0.420886 1.780304 -0.673647
v -0.426442 1.760481 -0.675948
v -0.428317 1.739866 -0.676725
v -0.426442 1.719251 -0.675948
v -0.420886 1.699428 -0.673647
v -0.411865 1.681159 -0.669910
v -0.399724 1.665146 -0.664881
v -0.384930 1.652005 -0.658753
v -0.368051 1.642240 -0.651762
v -0.349737 1.636227 -0.644176
v -0.347832 1.843506 -0.647740
v -0.364314 1.837492 -0.658753
v -0.379504 1.827728 -0.668903
v -0.392819 1.814586 -0.677799
v -0.403745 1.798573 -0.685100
v -0.411865 1.780304 -0.690525
v -0.416864 1.760481 -0.693866
v -0.418553 1.739866 -0.694994
v -0.416864 1.719251 -0.693866
v -0.411865 1.699428 -0.690525
v -0.403745 1.681159 -0.685100
v -0.392819 1.665146 -0.677799
v -0.379504 1.652005 -0.668903
v -0.364314 1.642240 -0.658753
v -0.347832 1.636227 -0.647740
v -0.345268 1.843506 -0.650864
v -0.359285 1.837492 -0.664881
v -0.372203 1.827728 -0.677799
v -0.383526 1.814586 -0.689122
v -0.392819 1.798573 -0.698415
v -0.399723 1.780304 -0.705319
v -0.403975 1.760481 -0.709571
v -0.405411 1.739866 -0.711007
v -0.403975 1.719251 -0.709571
v -0.399723 1.699428 -0.705319
v -0.392819 1.681159 -0.698415
v -0.383526 1.665146 -0.689122
v -0.372203 1.652005 -0.677799
v -0.359285 1.642240 -0.664881
v -0.345268 1.636227 -0.650864
v -0.342144 1.843506 -0.653428
v -0.353157 1.837492 -0.669910
v -0.363307 1.827728 -0.685100
v -0.372203 1.814586 -0.698415
v -0.379504 1.798573 -0.709341
v -0.384930 1.780304 -0.717461
v -0.388270 1.760481 -0.722460
v -0.389398 1.739866 -0.724149
v -0.388270 1.719251 -0.722460
v -0.384930 1.699428 -0.717461
v -0.379504 1.681159 -0.709341
v -0.372203 1.665146 -0.698415
v -0.363307 1.652005 -0.685100
v -0.353157 1.642240 -0.669910
v -0.342144 1.636227 -0.653428
v -0.338580 1.843506 -0.655333
v -0.346166 1.837492 -0.673647
v -0.353157 1.827728 -0.690525
v -0.359285 1.814586 -0.705319
v -0.364314 1.798573 -0.717461
v -0.368051 1.780304 -0.726482
v -0.370352 1.760481 -0.732038
v -0.371129 1.739866 -0.733913
v -0.370352 1.719251 -0.732038
v -0.368051 1.699428 -0.726482
v -0.364314 1.681159 -0.717461
v -0.359285 1.665146 -0.705319
v -0.353157 1.652005 -0.690525
v -0.346166 1.642240 -0.673647
v -0.338580 1.636227 -0.655333
v -0.334713 1.843506 -0.656506
v -0.338580 1.837492 -0.675948
v -0.342144 1.827728 -0.693866
v -0.345268 1.814586 -0.709571
v -0.347832 1.798573 -0.722460
v -0.349737 1.780304 -0.732038
v -0.350910 1.760481 -0.737935
v -0.351306 1.739866 -0.739927
v -0.350910 1.719251 -0.737935
v -0.349737 1.699428 -0.732038
v -0.347832 1.681159 -0.722460
v -0.345268 1.665146 -0.709571
v -0.342144 1.652005 -0.693866
v -0.338580 1.642240 -0.675948
v -0.334713 1.636227 -0.656506
v -0.330691 1.843506 -0.656902
v -0.330691 1.837492 -0.676725
v -0.330691 1.814586 -0.711007
v -0.330691 1.780304 -0.733913
v -0.330691 1.699428 -0.733913
v -0.330691 1.665146 -0.711007
v -0.330691 1.652005 -0.694994
v -0.330691 1.642240 -0.676725
v -0.330691 1.636227 -0.656902
g chapeu_cima
v 0.000000 2.146810 -0.478576
v 0.000000 3.103962 -0.478576
v 0.093366 2.146810 -0.469381
v 0.093366 3.103962 -0.469381
v 0.183143 2.146810 -0.442147
v 0.183143 3.103962 -0.442147
v 0.265883 2.146810 -0.397922
v 0.265883 3.103962 -0.397922
v 0.338405 2.146810 -0.338405
v 0.338405 3.103962 -0.338405
v 0.397922 2.146810 -0.265883
v 0.397922 3.103962 -0.265883
v 0.442147 2.146810 -0.183143
v 0.442147 3.103962 -0.183143
v 0.469381 2.146810 -0.093366
v 0.469381 3.103962 -0.093366
v 0.478576 2.146810 0.000000
v 0.478576 3.103962 0.000000
v 0.469381 2.146810 0.093366
v 0.469381 3.103962 0.093366
v 0.442147 2.146810 0.183143
v 0.442147 3.103962 0.183143
v 0.397922 2.146810 0.265883
v 0.397922 3.103962 0.265883
v 0.338405 2.146810 0.338405
v 0.338405 3.103962 0.338405
v 0.265883 2.146810 0.397922
v 0.265883 3.103962 0.397922
v 0.183143 2.146810 0.442147
v 0.183143 3.103962 0.442147
v 0.093366 2.146810 0.469381
v 0.093366 3.103962 0.469381
v 0.000000 2.146810 0.478576
v 0.000000 3.103962 0.478576
v -0.093366 2.146810 0.469381
v -0.093366 3.103962 0.469381
v -0.183143 2.146810 0.442147
v -0.183143 3.103962 0.442147
v -0.265883 2.146810 0.397922
v -0.265883 3.103962 0.397922
v -0.338405 2.146810 0.338405
v -0.338405 3.103962 0.338405
v -0.397922 2.146810 0.265883
v -0.397922 3.103962 0.265883
v -0.442147 2.146810 0.183143
v -0.442147 3.103962 0.183143
v -0.469381 2.146810 0.093366
v -0.469381 3.103962 0.093366
v -0.478576 2.146810 0.000000
v -0.478576 3.103962 0.000000
v -0.469381 2.146810 -0.093366
v -0.469381 3.103962 -0.093366
v -0.442147 2.146810 -0.183143
v -0.442147 3.103962 -0.183143
v -0.397922 2.146810 -0.265883
v -0.397922 3.103962 -0.265883
v -0.338405 2.146810 -0.338405
v -0.338405 3.103962 -0.338405
v -0.265883 2.146810 -0.397922
v -0.265883 3.103962 -0.397922
v -0.183143 2.146810 -0.442147
v -0.183143 3.103962 -0.442147
v -0.093366 2.146810 -0.469381
v -0.093366 3.103962 -0.469381
g chapeu_baixo
v 0.000000 2.048738 -0.948859
v 0.000000 2.198965 -0.948859
v 0.185113 2.048738 -0.930627
v 0.185113 2.198965 -0.930627
v 0.363113 2.048738 -0.876631
v 0.363113 2.198965 -0.876631
v 0.527158 2.048738 -0.788947
v 0.527158 2.198965 -0.788947
v 0.670944 2.048738 -0.670944
v 0.670944 2.198965 -0.670944
v 0.788947 2.048738 -0.527158
v 0.788947 2.198965 -0.527158
v 0.876631 2.048738 -0.363113
v 0.876631 2.198965 -0.363113
v 0.930627 2.048738 -0.185113
v 0.930627 2.198965 -0.185113
v 0.948859 2.048738 0.000000
v 0.948859 2.198965 0.000000
v 0.930627 2.048738 0.185113
v 0.930627 2.198965 0.185113
v 0.876631 2.048738 0.363113
v 0.876631 2.198965 0.363113
v 0.788947 2.048738 0.527158
v 0.788947 2.198965 0.527158
v 0.670944 2.048738 0.670944
v 0.670944 2.198965 0.670944
v 0.527158 2.048738 0.788947
v 0.527158 2.198965 0.788947
v 0.363113 2.048738 0.876631
v 0.363113 2.198965 0.876631
v 0.185113 2.048738 0.930627
v 0.185113 2.198965 0.930627
v 0.000000 2.048738 0.948859
v 0.000000 2.198965 0.948859
v -0.185113 2.048738 0.930627
v -0.185113 2.198965 0.930627
v -0.363113 2.048738 0.876631
v -0.363113 2.198965 0.876631
v -0.527158 2.048738 0.788947
v -0.527158 2.198965 0.788947
v -0.670944 2.048738 0.670944
v -0.670944 2.198965 0.670944
v -0.788947 2.048738 0.527158
v -0.788947 2.198965 0.527158
v -0.876631 2.048738 0.363113
v -0.876631 2.198965 0.363113
v -0.930627 2.048738 0.185113
v -0.930627 2.198965 0.185113
v -0.948859 2.048738 0.000000
v -0.948859 2.198965 0.000000
v -0.930627 2.048738 -0.185113
v -0.930627 2.198965 -0.185113
v -0.876631 2.048738 -0.363113
v -0.876631 2.198965 -0.363113
v -0.788947 2.048738 -0.527158
v -0.788947 2.198965 -0.527158
v -0.670944 2.048738 -0.670944
v -0.670944 2.198965 -0.670944
v -0.527158 2.048738 -0.788947
v -0.527158 2.198965 -0.788947
v -0.363113 2.048738 -0.876631
v -0.363113 2.198965 -0.876631
v -0.185113 2.048738 -0.930627
v -0.185113 2.198965 -0.930627